<svg xmlns="http://www.w3.org/2000/svg" xmlns:xlink="http://www.w3.org/1999/xlink" width="600" height="400" viewBox="0 0 2400 1600">
<defs>
  <clipPath id="clip860">
    <rect x="0" y="0" width="2400" height="1600"></rect>
  </clipPath>
</defs>
<path clip-path="url(#clip860)" d="
M0 1600 L2400 1600 L2400 0 L0 0  Z
  " fill="#ffffff" fill-rule="evenodd" fill-opacity="1"></path>
<defs>
  <clipPath id="clip861">
    <rect x="480" y="0" width="1681" height="1600"></rect>
  </clipPath>
</defs>
<path clip-path="url(#clip860)" d="
M220.676 1423.18 L2352.76 1423.18 L2352.76 47.2441 L220.676 47.2441  Z
  " fill="#ffffff" fill-rule="evenodd" fill-opacity="1"></path>
<defs>
  <clipPath id="clip862">
    <rect x="220" y="47" width="2133" height="1377"></rect>
  </clipPath>
</defs>
<polyline clip-path="url(#clip862)" style="stroke:#000000; stroke-linecap:butt; stroke-linejoin:round; stroke-width:2; stroke-opacity:0.1; fill:none" points="
  281.018,1423.18 281.018,47.2441 
  "></polyline>
<polyline clip-path="url(#clip862)" style="stroke:#000000; stroke-linecap:butt; stroke-linejoin:round; stroke-width:2; stroke-opacity:0.1; fill:none" points="
  951.484,1423.18 951.484,47.2441 
  "></polyline>
<polyline clip-path="url(#clip862)" style="stroke:#000000; stroke-linecap:butt; stroke-linejoin:round; stroke-width:2; stroke-opacity:0.1; fill:none" points="
  1621.95,1423.18 1621.95,47.2441 
  "></polyline>
<polyline clip-path="url(#clip862)" style="stroke:#000000; stroke-linecap:butt; stroke-linejoin:round; stroke-width:2; stroke-opacity:0.1; fill:none" points="
  2292.41,1423.18 2292.41,47.2441 
  "></polyline>
<polyline clip-path="url(#clip860)" style="stroke:#000000; stroke-linecap:butt; stroke-linejoin:round; stroke-width:4; stroke-opacity:1; fill:none" points="
  220.676,1423.18 2352.76,1423.18 
  "></polyline>
<polyline clip-path="url(#clip860)" style="stroke:#000000; stroke-linecap:butt; stroke-linejoin:round; stroke-width:4; stroke-opacity:1; fill:none" points="
  281.018,1423.18 281.018,1404.28 
  "></polyline>
<polyline clip-path="url(#clip860)" style="stroke:#000000; stroke-linecap:butt; stroke-linejoin:round; stroke-width:4; stroke-opacity:1; fill:none" points="
  951.484,1423.18 951.484,1404.28 
  "></polyline>
<polyline clip-path="url(#clip860)" style="stroke:#000000; stroke-linecap:butt; stroke-linejoin:round; stroke-width:4; stroke-opacity:1; fill:none" points="
  1621.95,1423.18 1621.95,1404.28 
  "></polyline>
<polyline clip-path="url(#clip860)" style="stroke:#000000; stroke-linecap:butt; stroke-linejoin:round; stroke-width:4; stroke-opacity:1; fill:none" points="
  2292.41,1423.18 2292.41,1404.28 
  "></polyline>
<path clip-path="url(#clip860)" d="M281.018 1454.1 Q277.407 1454.1 275.579 1457.66 Q273.773 1461.2 273.773 1468.33 Q273.773 1475.44 275.579 1479.01 Q277.407 1482.55 281.018 1482.55 Q284.653 1482.55 286.458 1479.01 Q288.287 1475.44 288.287 1468.33 Q288.287 1461.2 286.458 1457.66 Q284.653 1454.1 281.018 1454.1 M281.018 1450.39 Q286.828 1450.39 289.884 1455 Q292.963 1459.58 292.963 1468.33 Q292.963 1477.06 289.884 1481.67 Q286.828 1486.25 281.018 1486.25 Q275.208 1486.25 272.129 1481.67 Q269.074 1477.06 269.074 1468.33 Q269.074 1459.58 272.129 1455 Q275.208 1450.39 281.018 1450.39 Z" fill="#000000" fill-rule="evenodd" fill-opacity="1"></path><path clip-path="url(#clip860)" d="M941.761 1451.02 L960.118 1451.02 L960.118 1454.96 L946.044 1454.96 L946.044 1463.43 Q947.062 1463.08 948.081 1462.92 Q949.099 1462.73 950.118 1462.73 Q955.905 1462.73 959.284 1465.9 Q962.664 1469.08 962.664 1474.49 Q962.664 1480.07 959.192 1483.17 Q955.72 1486.25 949.4 1486.25 Q947.224 1486.25 944.956 1485.88 Q942.71 1485.51 940.303 1484.77 L940.303 1480.07 Q942.386 1481.2 944.609 1481.76 Q946.831 1482.32 949.308 1482.32 Q953.312 1482.32 955.65 1480.21 Q957.988 1478.1 957.988 1474.49 Q957.988 1470.88 955.65 1468.77 Q953.312 1466.67 949.308 1466.67 Q947.433 1466.67 945.558 1467.08 Q943.706 1467.5 941.761 1468.38 L941.761 1451.02 Z" fill="#000000" fill-rule="evenodd" fill-opacity="1"></path><path clip-path="url(#clip860)" d="M1596.64 1481.64 L1604.28 1481.64 L1604.28 1455.28 L1595.97 1456.95 L1595.97 1452.69 L1604.23 1451.02 L1608.9 1451.02 L1608.9 1481.64 L1616.54 1481.64 L1616.54 1485.58 L1596.64 1485.58 L1596.64 1481.64 Z" fill="#000000" fill-rule="evenodd" fill-opacity="1"></path><path clip-path="url(#clip860)" d="M1635.99 1454.1 Q1632.38 1454.1 1630.55 1457.66 Q1628.74 1461.2 1628.74 1468.33 Q1628.74 1475.44 1630.55 1479.01 Q1632.38 1482.55 1635.99 1482.55 Q1639.62 1482.55 1641.43 1479.01 Q1643.26 1475.44 1643.26 1468.33 Q1643.26 1461.2 1641.43 1457.66 Q1639.62 1454.1 1635.99 1454.1 M1635.99 1450.39 Q1641.8 1450.39 1644.85 1455 Q1647.93 1459.58 1647.93 1468.33 Q1647.93 1477.06 1644.85 1481.67 Q1641.8 1486.25 1635.99 1486.25 Q1630.18 1486.25 1627.1 1481.67 Q1624.04 1477.06 1624.04 1468.33 Q1624.04 1459.58 1627.1 1455 Q1630.18 1450.39 1635.99 1450.39 Z" fill="#000000" fill-rule="evenodd" fill-opacity="1"></path><path clip-path="url(#clip860)" d="M2267.6 1481.64 L2275.24 1481.64 L2275.24 1455.28 L2266.93 1456.95 L2266.93 1452.69 L2275.19 1451.02 L2279.87 1451.02 L2279.87 1481.64 L2287.51 1481.64 L2287.51 1485.58 L2267.6 1485.58 L2267.6 1481.64 Z" fill="#000000" fill-rule="evenodd" fill-opacity="1"></path><path clip-path="url(#clip860)" d="M2297 1451.02 L2315.35 1451.02 L2315.35 1454.96 L2301.28 1454.96 L2301.28 1463.43 Q2302.3 1463.08 2303.32 1462.92 Q2304.34 1462.73 2305.35 1462.73 Q2311.14 1462.73 2314.52 1465.9 Q2317.9 1469.08 2317.9 1474.49 Q2317.9 1480.07 2314.43 1483.17 Q2310.96 1486.25 2304.64 1486.25 Q2302.46 1486.25 2300.19 1485.88 Q2297.95 1485.51 2295.54 1484.77 L2295.54 1480.07 Q2297.62 1481.2 2299.84 1481.76 Q2302.07 1482.32 2304.54 1482.32 Q2308.55 1482.32 2310.89 1480.21 Q2313.22 1478.1 2313.22 1474.49 Q2313.22 1470.88 2310.89 1468.77 Q2308.55 1466.67 2304.54 1466.67 Q2302.67 1466.67 2300.79 1467.08 Q2298.94 1467.5 2297 1468.38 L2297 1451.02 Z" fill="#000000" fill-rule="evenodd" fill-opacity="1"></path><path clip-path="url(#clip860)" d="M1198.39 1522.27 L1198.39 1532.4 L1210.46 1532.4 L1210.46 1536.95 L1198.39 1536.95 L1198.39 1556.3 Q1198.39 1560.66 1199.57 1561.9 Q1200.78 1563.14 1204.44 1563.14 L1210.46 1563.14 L1210.46 1568.04 L1204.44 1568.04 Q1197.66 1568.04 1195.08 1565.53 Q1192.5 1562.98 1192.5 1556.3 L1192.5 1536.95 L1188.21 1536.95 L1188.21 1532.4 L1192.5 1532.4 L1192.5 1522.27 L1198.39 1522.27 Z" fill="#000000" fill-rule="evenodd" fill-opacity="1"></path><path clip-path="url(#clip860)" d="M1218.16 1532.4 L1224.01 1532.4 L1224.01 1568.04 L1218.16 1568.04 L1218.16 1532.4 M1218.16 1518.52 L1224.01 1518.52 L1224.01 1525.93 L1218.16 1525.93 L1218.16 1518.52 Z" fill="#000000" fill-rule="evenodd" fill-opacity="1"></path><path clip-path="url(#clip860)" d="M1264.02 1539.24 Q1266.22 1535.29 1269.27 1533.41 Q1272.33 1531.54 1276.47 1531.54 Q1282.04 1531.54 1285.06 1535.45 Q1288.08 1539.33 1288.08 1546.53 L1288.08 1568.04 L1282.2 1568.04 L1282.2 1546.72 Q1282.2 1541.59 1280.38 1539.11 Q1278.57 1536.63 1274.84 1536.63 Q1270.29 1536.63 1267.65 1539.65 Q1265.01 1542.68 1265.01 1547.9 L1265.01 1568.04 L1259.12 1568.04 L1259.12 1546.72 Q1259.12 1541.56 1257.31 1539.11 Q1255.49 1536.63 1251.7 1536.63 Q1247.22 1536.63 1244.58 1539.68 Q1241.93 1542.71 1241.93 1547.9 L1241.93 1568.04 L1236.05 1568.04 L1236.05 1532.4 L1241.93 1532.4 L1241.93 1537.93 Q1243.94 1534.66 1246.74 1533.1 Q1249.54 1531.54 1253.39 1531.54 Q1257.27 1531.54 1259.98 1533.51 Q1262.72 1535.48 1264.02 1539.24 Z" fill="#000000" fill-rule="evenodd" fill-opacity="1"></path><path clip-path="url(#clip860)" d="M1330.26 1548.76 L1330.26 1551.62 L1303.33 1551.62 Q1303.71 1557.67 1306.96 1560.85 Q1310.24 1564 1316.06 1564 Q1319.44 1564 1322.59 1563.17 Q1325.77 1562.35 1328.89 1560.69 L1328.89 1566.23 Q1325.74 1567.57 1322.43 1568.27 Q1319.12 1568.97 1315.71 1568.97 Q1307.18 1568.97 1302.18 1564 Q1297.22 1559.04 1297.22 1550.57 Q1297.22 1541.82 1301.93 1536.69 Q1306.67 1531.54 1314.69 1531.54 Q1321.89 1531.54 1326.06 1536.18 Q1330.26 1540.8 1330.26 1548.76 M1324.4 1547.04 Q1324.34 1542.23 1321.7 1539.37 Q1319.09 1536.5 1314.76 1536.5 Q1309.86 1536.5 1306.9 1539.27 Q1303.97 1542.04 1303.52 1547.07 L1324.4 1547.04 Z" fill="#000000" fill-rule="evenodd" fill-opacity="1"></path><path clip-path="url(#clip860)" d="M1383.32 1533.45 L1383.32 1538.98 Q1380.83 1537.71 1378.16 1537.07 Q1375.49 1536.44 1372.62 1536.44 Q1368.26 1536.44 1366.06 1537.77 Q1363.9 1539.11 1363.9 1541.79 Q1363.9 1543.82 1365.46 1545 Q1367.02 1546.15 1371.73 1547.2 L1373.74 1547.64 Q1379.97 1548.98 1382.58 1551.43 Q1385.23 1553.85 1385.23 1558.21 Q1385.23 1563.17 1381.28 1566.07 Q1377.36 1568.97 1370.49 1568.97 Q1367.62 1568.97 1364.51 1568.39 Q1361.42 1567.85 1357.98 1566.74 L1357.98 1560.69 Q1361.23 1562.38 1364.38 1563.24 Q1367.53 1564.07 1370.62 1564.07 Q1374.75 1564.07 1376.98 1562.66 Q1379.21 1561.23 1379.21 1558.65 Q1379.21 1556.27 1377.59 1554.99 Q1376 1553.72 1370.55 1552.54 L1368.52 1552.07 Q1363.07 1550.92 1360.65 1548.56 Q1358.23 1546.18 1358.23 1542.04 Q1358.23 1537.01 1361.8 1534.27 Q1365.36 1531.54 1371.92 1531.54 Q1375.17 1531.54 1378.03 1532.01 Q1380.9 1532.49 1383.32 1533.45 Z" fill="#000000" fill-rule="evenodd" fill-opacity="1"></path><polyline clip-path="url(#clip862)" style="stroke:#000000; stroke-linecap:butt; stroke-linejoin:round; stroke-width:2; stroke-opacity:0.1; fill:none" points="
  220.676,1384.24 2352.76,1384.24 
  "></polyline>
<polyline clip-path="url(#clip862)" style="stroke:#000000; stroke-linecap:butt; stroke-linejoin:round; stroke-width:2; stroke-opacity:0.1; fill:none" points="
  220.676,1140.97 2352.76,1140.97 
  "></polyline>
<polyline clip-path="url(#clip862)" style="stroke:#000000; stroke-linecap:butt; stroke-linejoin:round; stroke-width:2; stroke-opacity:0.1; fill:none" points="
  220.676,897.697 2352.76,897.697 
  "></polyline>
<polyline clip-path="url(#clip862)" style="stroke:#000000; stroke-linecap:butt; stroke-linejoin:round; stroke-width:2; stroke-opacity:0.1; fill:none" points="
  220.676,654.426 2352.76,654.426 
  "></polyline>
<polyline clip-path="url(#clip862)" style="stroke:#000000; stroke-linecap:butt; stroke-linejoin:round; stroke-width:2; stroke-opacity:0.1; fill:none" points="
  220.676,411.155 2352.76,411.155 
  "></polyline>
<polyline clip-path="url(#clip862)" style="stroke:#000000; stroke-linecap:butt; stroke-linejoin:round; stroke-width:2; stroke-opacity:0.1; fill:none" points="
  220.676,167.884 2352.76,167.884 
  "></polyline>
<polyline clip-path="url(#clip860)" style="stroke:#000000; stroke-linecap:butt; stroke-linejoin:round; stroke-width:4; stroke-opacity:1; fill:none" points="
  220.676,1423.18 220.676,47.2441 
  "></polyline>
<polyline clip-path="url(#clip860)" style="stroke:#000000; stroke-linecap:butt; stroke-linejoin:round; stroke-width:4; stroke-opacity:1; fill:none" points="
  220.676,1384.24 239.574,1384.24 
  "></polyline>
<polyline clip-path="url(#clip860)" style="stroke:#000000; stroke-linecap:butt; stroke-linejoin:round; stroke-width:4; stroke-opacity:1; fill:none" points="
  220.676,1140.97 239.574,1140.97 
  "></polyline>
<polyline clip-path="url(#clip860)" style="stroke:#000000; stroke-linecap:butt; stroke-linejoin:round; stroke-width:4; stroke-opacity:1; fill:none" points="
  220.676,897.697 239.574,897.697 
  "></polyline>
<polyline clip-path="url(#clip860)" style="stroke:#000000; stroke-linecap:butt; stroke-linejoin:round; stroke-width:4; stroke-opacity:1; fill:none" points="
  220.676,654.426 239.574,654.426 
  "></polyline>
<polyline clip-path="url(#clip860)" style="stroke:#000000; stroke-linecap:butt; stroke-linejoin:round; stroke-width:4; stroke-opacity:1; fill:none" points="
  220.676,411.155 239.574,411.155 
  "></polyline>
<polyline clip-path="url(#clip860)" style="stroke:#000000; stroke-linecap:butt; stroke-linejoin:round; stroke-width:4; stroke-opacity:1; fill:none" points="
  220.676,167.884 239.574,167.884 
  "></polyline>
<path clip-path="url(#clip860)" d="M130.348 1371.03 L118.543 1389.48 L130.348 1389.48 L130.348 1371.03 M129.121 1366.96 L135.001 1366.96 L135.001 1389.48 L139.931 1389.48 L139.931 1393.37 L135.001 1393.37 L135.001 1401.52 L130.348 1401.52 L130.348 1393.37 L114.746 1393.37 L114.746 1388.86 L129.121 1366.96 Z" fill="#000000" fill-rule="evenodd" fill-opacity="1"></path><path clip-path="url(#clip860)" d="M147.663 1395.64 L152.547 1395.64 L152.547 1401.52 L147.663 1401.52 L147.663 1395.64 Z" fill="#000000" fill-rule="evenodd" fill-opacity="1"></path><path clip-path="url(#clip860)" d="M172.732 1370.04 Q169.121 1370.04 167.292 1373.6 Q165.487 1377.14 165.487 1384.27 Q165.487 1391.38 167.292 1394.94 Q169.121 1398.49 172.732 1398.49 Q176.366 1398.49 178.172 1394.94 Q180.001 1391.38 180.001 1384.27 Q180.001 1377.14 178.172 1373.6 Q176.366 1370.04 172.732 1370.04 M172.732 1366.33 Q178.542 1366.33 181.598 1370.94 Q184.676 1375.52 184.676 1384.27 Q184.676 1393 181.598 1397.61 Q178.542 1402.19 172.732 1402.19 Q166.922 1402.19 163.843 1397.61 Q160.788 1393 160.788 1384.27 Q160.788 1375.52 163.843 1370.94 Q166.922 1366.33 172.732 1366.33 Z" fill="#000000" fill-rule="evenodd" fill-opacity="1"></path><path clip-path="url(#clip860)" d="M131.575 1127.76 L119.769 1146.21 L131.575 1146.21 L131.575 1127.76 M130.348 1123.69 L136.228 1123.69 L136.228 1146.21 L141.158 1146.21 L141.158 1150.1 L136.228 1150.1 L136.228 1158.25 L131.575 1158.25 L131.575 1150.1 L115.973 1150.1 L115.973 1145.59 L130.348 1123.69 Z" fill="#000000" fill-rule="evenodd" fill-opacity="1"></path><path clip-path="url(#clip860)" d="M148.89 1152.37 L153.774 1152.37 L153.774 1158.25 L148.89 1158.25 L148.89 1152.37 Z" fill="#000000" fill-rule="evenodd" fill-opacity="1"></path><path clip-path="url(#clip860)" d="M164.769 1154.31 L172.408 1154.31 L172.408 1127.95 L164.098 1129.61 L164.098 1125.35 L172.362 1123.69 L177.038 1123.69 L177.038 1154.31 L184.676 1154.31 L184.676 1158.25 L164.769 1158.25 L164.769 1154.31 Z" fill="#000000" fill-rule="evenodd" fill-opacity="1"></path><path clip-path="url(#clip860)" d="M131.945 884.491 L120.14 902.94 L131.945 902.94 L131.945 884.491 M130.718 880.417 L136.598 880.417 L136.598 902.94 L141.529 902.94 L141.529 906.828 L136.598 906.828 L136.598 914.977 L131.945 914.977 L131.945 906.828 L116.343 906.828 L116.343 902.315 L130.718 880.417 Z" fill="#000000" fill-rule="evenodd" fill-opacity="1"></path><path clip-path="url(#clip860)" d="M149.26 909.097 L154.144 909.097 L154.144 914.977 L149.26 914.977 L149.26 909.097 Z" fill="#000000" fill-rule="evenodd" fill-opacity="1"></path><path clip-path="url(#clip860)" d="M168.357 911.041 L184.676 911.041 L184.676 914.977 L162.732 914.977 L162.732 911.041 Q165.394 908.287 169.977 903.657 Q174.584 899.004 175.764 897.662 Q178.01 895.139 178.889 893.403 Q179.792 891.643 179.792 889.954 Q179.792 887.199 177.848 885.463 Q175.926 883.727 172.825 883.727 Q170.626 883.727 168.172 884.491 Q165.741 885.254 162.964 886.805 L162.964 882.083 Q165.788 880.949 168.241 880.37 Q170.695 879.792 172.732 879.792 Q178.102 879.792 181.297 882.477 Q184.491 885.162 184.491 889.653 Q184.491 891.782 183.681 893.704 Q182.894 895.602 180.788 898.194 Q180.209 898.866 177.107 902.083 Q174.005 905.278 168.357 911.041 Z" fill="#000000" fill-rule="evenodd" fill-opacity="1"></path><path clip-path="url(#clip860)" d="M130.996 641.22 L119.191 659.669 L130.996 659.669 L130.996 641.22 M129.769 637.146 L135.649 637.146 L135.649 659.669 L140.579 659.669 L140.579 663.558 L135.649 663.558 L135.649 671.706 L130.996 671.706 L130.996 663.558 L115.394 663.558 L115.394 659.044 L129.769 637.146 Z" fill="#000000" fill-rule="evenodd" fill-opacity="1"></path><path clip-path="url(#clip860)" d="M148.311 665.826 L153.195 665.826 L153.195 671.706 L148.311 671.706 L148.311 665.826 Z" fill="#000000" fill-rule="evenodd" fill-opacity="1"></path><path clip-path="url(#clip860)" d="M177.547 653.072 Q180.903 653.789 182.778 656.058 Q184.676 658.326 184.676 661.659 Q184.676 666.775 181.158 669.576 Q177.639 672.377 171.158 672.377 Q168.982 672.377 166.667 671.937 Q164.376 671.52 161.922 670.664 L161.922 666.15 Q163.866 667.284 166.181 667.863 Q168.496 668.442 171.019 668.442 Q175.417 668.442 177.709 666.706 Q180.024 664.97 180.024 661.659 Q180.024 658.604 177.871 656.891 Q175.741 655.155 171.922 655.155 L167.894 655.155 L167.894 651.312 L172.107 651.312 Q175.556 651.312 177.385 649.947 Q179.214 648.558 179.214 645.965 Q179.214 643.303 177.315 641.891 Q175.44 640.456 171.922 640.456 Q170.001 640.456 167.802 640.873 Q165.602 641.289 162.964 642.169 L162.964 638.002 Q165.626 637.261 167.94 636.891 Q170.278 636.521 172.339 636.521 Q177.663 636.521 180.764 638.951 Q183.866 641.359 183.866 645.479 Q183.866 648.349 182.223 650.34 Q180.579 652.308 177.547 653.072 Z" fill="#000000" fill-rule="evenodd" fill-opacity="1"></path><path clip-path="url(#clip860)" d="M129.862 397.949 L118.056 416.398 L129.862 416.398 L129.862 397.949 M128.635 393.875 L134.515 393.875 L134.515 416.398 L139.445 416.398 L139.445 420.287 L134.515 420.287 L134.515 428.435 L129.862 428.435 L129.862 420.287 L114.26 420.287 L114.26 415.773 L128.635 393.875 Z" fill="#000000" fill-rule="evenodd" fill-opacity="1"></path><path clip-path="url(#clip860)" d="M147.177 422.555 L152.061 422.555 L152.061 428.435 L147.177 428.435 L147.177 422.555 Z" fill="#000000" fill-rule="evenodd" fill-opacity="1"></path><path clip-path="url(#clip860)" d="M175.093 397.949 L163.288 416.398 L175.093 416.398 L175.093 397.949 M173.866 393.875 L179.746 393.875 L179.746 416.398 L184.676 416.398 L184.676 420.287 L179.746 420.287 L179.746 428.435 L175.093 428.435 L175.093 420.287 L159.491 420.287 L159.491 415.773 L173.866 393.875 Z" fill="#000000" fill-rule="evenodd" fill-opacity="1"></path><path clip-path="url(#clip860)" d="M131.343 154.678 L119.538 173.127 L131.343 173.127 L131.343 154.678 M130.117 150.604 L135.996 150.604 L135.996 173.127 L140.927 173.127 L140.927 177.016 L135.996 177.016 L135.996 185.164 L131.343 185.164 L131.343 177.016 L115.742 177.016 L115.742 172.502 L130.117 150.604 Z" fill="#000000" fill-rule="evenodd" fill-opacity="1"></path><path clip-path="url(#clip860)" d="M148.658 179.284 L153.542 179.284 L153.542 185.164 L148.658 185.164 L148.658 179.284 Z" fill="#000000" fill-rule="evenodd" fill-opacity="1"></path><path clip-path="url(#clip860)" d="M163.774 150.604 L182.13 150.604 L182.13 154.539 L168.056 154.539 L168.056 163.011 Q169.075 162.664 170.093 162.502 Q171.112 162.317 172.13 162.317 Q177.917 162.317 181.297 165.488 Q184.676 168.659 184.676 174.076 Q184.676 179.655 181.204 182.757 Q177.732 185.835 171.413 185.835 Q169.237 185.835 166.968 185.465 Q164.723 185.095 162.315 184.354 L162.315 179.655 Q164.399 180.789 166.621 181.345 Q168.843 181.9 171.32 181.9 Q175.325 181.9 177.663 179.794 Q180.001 177.687 180.001 174.076 Q180.001 170.465 177.663 168.358 Q175.325 166.252 171.32 166.252 Q169.445 166.252 167.57 166.669 Q165.718 167.085 163.774 167.965 L163.774 150.604 Z" fill="#000000" fill-rule="evenodd" fill-opacity="1"></path><path clip-path="url(#clip860)" d="M58.657 931.562 L77.5631 931.562 L77.5631 937.45 L28.3562 937.45 L28.3562 931.562 L33.7671 931.562 Q30.5842 929.716 29.0564 926.915 Q27.4968 924.082 27.4968 920.168 Q27.4968 913.675 32.6531 909.632 Q37.8093 905.558 46.212 905.558 Q54.6147 905.558 59.771 909.632 Q64.9272 913.675 64.9272 920.168 Q64.9272 924.082 63.3994 926.915 Q61.8398 929.716 58.657 931.562 M46.212 911.638 Q39.7508 911.638 36.0905 914.311 Q32.3984 916.953 32.3984 921.6 Q32.3984 926.247 36.0905 928.92 Q39.7508 931.562 46.212 931.562 Q52.6732 931.562 56.3653 928.92 Q60.0256 926.247 60.0256 921.6 Q60.0256 916.953 56.3653 914.311 Q52.6732 911.638 46.212 911.638 Z" fill="#000000" fill-rule="evenodd" fill-opacity="1"></path><path clip-path="url(#clip860)" d="M33.8307 875.194 Q33.2578 876.181 33.0032 877.358 Q32.7167 878.504 32.7167 879.904 Q32.7167 884.87 35.9632 887.543 Q39.1779 890.185 45.2253 890.185 L64.0042 890.185 L64.0042 896.073 L28.3562 896.073 L28.3562 890.185 L33.8944 890.185 Q30.6479 888.339 29.0883 885.379 Q27.4968 882.419 27.4968 878.186 Q27.4968 877.581 27.5923 876.849 Q27.656 876.117 27.8151 875.226 L33.8307 875.194 Z" fill="#000000" fill-rule="evenodd" fill-opacity="1"></path><path clip-path="url(#clip860)" d="M44.7161 839.991 L47.5806 839.991 L47.5806 866.918 Q53.6281 866.536 56.8109 863.29 Q59.9619 860.012 59.9619 854.187 Q59.9619 850.813 59.1344 847.662 Q58.3069 844.479 56.6518 841.36 L62.1899 841.36 Q63.5267 844.511 64.227 847.821 Q64.9272 851.131 64.9272 854.537 Q64.9272 863.067 59.9619 868.064 Q54.9967 873.03 46.5303 873.03 Q37.7774 873.03 32.6531 868.319 Q27.4968 863.576 27.4968 855.556 Q27.4968 848.362 32.1438 844.193 Q36.7589 839.991 44.7161 839.991 M42.9973 845.848 Q38.1912 845.912 35.3266 848.553 Q32.4621 851.163 32.4621 855.492 Q32.4621 860.394 35.2312 863.354 Q38.0002 866.282 43.0292 866.727 L42.9973 845.848 Z" fill="#000000" fill-rule="evenodd" fill-opacity="1"></path><path clip-path="url(#clip860)" d="M29.4065 807.654 L34.9447 807.654 Q33.6716 810.136 33.035 812.81 Q32.3984 815.484 32.3984 818.348 Q32.3984 822.709 33.7352 824.905 Q35.072 827.069 37.7456 827.069 Q39.7826 827.069 40.9603 825.51 Q42.1061 823.95 43.1565 819.239 L43.6021 817.234 Q44.9389 810.996 47.3897 808.386 Q49.8086 805.744 54.1691 805.744 Q59.1344 805.744 62.0308 809.691 Q64.9272 813.606 64.9272 820.481 Q64.9272 823.345 64.3543 826.464 Q63.8132 829.552 62.6992 832.989 L56.6518 832.989 Q58.3387 829.743 59.198 826.592 Q60.0256 823.441 60.0256 820.353 Q60.0256 816.216 58.6251 813.988 Q57.1929 811.76 54.6147 811.76 Q52.2276 811.76 50.9545 813.383 Q49.6813 814.974 48.5037 820.417 L48.0262 822.454 Q46.8804 827.897 44.5251 830.316 Q42.138 832.735 38.0002 832.735 Q32.9713 832.735 30.2341 829.17 Q27.4968 825.605 27.4968 819.048 Q27.4968 815.802 27.9743 812.937 Q28.4517 810.073 29.4065 807.654 Z" fill="#000000" fill-rule="evenodd" fill-opacity="1"></path><path clip-path="url(#clip860)" d="M29.4065 773.693 L34.9447 773.693 Q33.6716 776.175 33.035 778.849 Q32.3984 781.522 32.3984 784.387 Q32.3984 788.748 33.7352 790.944 Q35.072 793.108 37.7456 793.108 Q39.7826 793.108 40.9603 791.548 Q42.1061 789.989 43.1565 785.278 L43.6021 783.273 Q44.9389 777.035 47.3897 774.425 Q49.8086 771.783 54.1691 771.783 Q59.1344 771.783 62.0308 775.73 Q64.9272 779.645 64.9272 786.52 Q64.9272 789.384 64.3543 792.503 Q63.8132 795.591 62.6992 799.028 L56.6518 799.028 Q58.3387 795.782 59.198 792.631 Q60.0256 789.48 60.0256 786.392 Q60.0256 782.255 58.6251 780.027 Q57.1929 777.799 54.6147 777.799 Q52.2276 777.799 50.9545 779.422 Q49.6813 781.013 48.5037 786.456 L48.0262 788.493 Q46.8804 793.936 44.5251 796.355 Q42.138 798.774 38.0002 798.774 Q32.9713 798.774 30.2341 795.209 Q27.4968 791.644 27.4968 785.087 Q27.4968 781.841 27.9743 778.976 Q28.4517 776.112 29.4065 773.693 Z" fill="#000000" fill-rule="evenodd" fill-opacity="1"></path><path clip-path="url(#clip860)" d="M49.9359 763.062 L28.3562 763.062 L28.3562 757.205 L49.7131 757.205 Q54.7739 757.205 57.3202 755.232 Q59.8346 753.259 59.8346 749.312 Q59.8346 744.57 56.8109 741.832 Q53.7872 739.063 48.5673 739.063 L28.3562 739.063 L28.3562 733.207 L64.0042 733.207 L64.0042 739.063 L58.5296 739.063 Q61.7762 741.196 63.3676 744.028 Q64.9272 746.829 64.9272 750.553 Q64.9272 756.696 61.1078 759.879 Q57.2883 763.062 49.9359 763.062 M27.4968 748.325 L27.4968 748.325 Z" fill="#000000" fill-rule="evenodd" fill-opacity="1"></path><path clip-path="url(#clip860)" d="M33.8307 700.487 Q33.2578 701.474 33.0032 702.651 Q32.7167 703.797 32.7167 705.198 Q32.7167 710.163 35.9632 712.837 Q39.1779 715.478 45.2253 715.478 L64.0042 715.478 L64.0042 721.367 L28.3562 721.367 L28.3562 715.478 L33.8944 715.478 Q30.6479 713.632 29.0883 710.672 Q27.4968 707.712 27.4968 703.479 Q27.4968 702.874 27.5923 702.142 Q27.656 701.41 27.8151 700.519 L33.8307 700.487 Z" fill="#000000" fill-rule="evenodd" fill-opacity="1"></path><path clip-path="url(#clip860)" d="M44.7161 665.285 L47.5806 665.285 L47.5806 692.212 Q53.6281 691.83 56.8109 688.583 Q59.9619 685.305 59.9619 679.48 Q59.9619 676.106 59.1344 672.955 Q58.3069 669.773 56.6518 666.653 L62.1899 666.653 Q63.5267 669.804 64.227 673.115 Q64.9272 676.425 64.9272 679.83 Q64.9272 688.36 59.9619 693.357 Q54.9967 698.323 46.5303 698.323 Q37.7774 698.323 32.6531 693.612 Q27.4968 688.87 27.4968 680.849 Q27.4968 673.656 32.1438 669.486 Q36.7589 665.285 44.7161 665.285 M42.9973 671.141 Q38.1912 671.205 35.3266 673.847 Q32.4621 676.456 32.4621 680.785 Q32.4621 685.687 35.2312 688.647 Q38.0002 691.575 43.0292 692.021 L42.9973 671.141 Z" fill="#000000" fill-rule="evenodd" fill-opacity="1"></path><path clip-path="url(#clip860)" d="M46.212 609.362 Q39.7508 609.362 36.0905 612.036 Q32.3984 614.677 32.3984 619.324 Q32.3984 623.971 36.0905 626.645 Q39.7508 629.287 46.212 629.287 Q52.6732 629.287 56.3653 626.645 Q60.0256 623.971 60.0256 619.324 Q60.0256 614.677 56.3653 612.036 Q52.6732 609.362 46.212 609.362 M33.7671 629.287 Q30.5842 627.441 29.0564 624.64 Q27.4968 621.807 27.4968 617.892 Q27.4968 611.399 32.6531 607.357 Q37.8093 603.283 46.212 603.283 Q54.6147 603.283 59.771 607.357 Q64.9272 611.399 64.9272 617.892 Q64.9272 621.807 63.3994 624.64 Q61.8398 627.441 58.657 629.287 L64.0042 629.287 L64.0042 635.175 L14.479 635.175 L14.479 629.287 L33.7671 629.287 Z" fill="#000000" fill-rule="evenodd" fill-opacity="1"></path><path clip-path="url(#clip860)" d="M46.0847 577.374 Q46.0847 584.472 47.7079 587.209 Q49.3312 589.947 53.2461 589.947 Q56.3653 589.947 58.2114 587.91 Q60.0256 585.841 60.0256 582.308 Q60.0256 577.438 56.5881 574.51 Q53.1188 571.55 47.3897 571.55 L46.0847 571.55 L46.0847 577.374 M43.6657 565.693 L64.0042 565.693 L64.0042 571.55 L58.5933 571.55 Q61.8398 573.555 63.3994 576.547 Q64.9272 579.539 64.9272 583.867 Q64.9272 589.342 61.8716 592.588 Q58.7843 595.803 53.6281 595.803 Q47.6125 595.803 44.5569 591.793 Q41.5014 587.75 41.5014 579.761 L41.5014 571.55 L40.9285 571.55 Q36.8862 571.55 34.6901 574.223 Q32.4621 576.865 32.4621 581.671 Q32.4621 584.727 33.1941 587.623 Q33.9262 590.519 35.3903 593.193 L29.9795 593.193 Q28.7381 589.978 28.1334 586.955 Q27.4968 583.931 27.4968 581.066 Q27.4968 573.332 31.5072 569.513 Q35.5176 565.693 43.6657 565.693 Z" fill="#000000" fill-rule="evenodd" fill-opacity="1"></path><path clip-path="url(#clip860)" d="M33.8307 532.973 Q33.2578 533.96 33.0032 535.138 Q32.7167 536.284 32.7167 537.684 Q32.7167 542.649 35.9632 545.323 Q39.1779 547.965 45.2253 547.965 L64.0042 547.965 L64.0042 553.853 L28.3562 553.853 L28.3562 547.965 L33.8944 547.965 Q30.6479 546.119 29.0883 543.159 Q27.4968 540.199 27.4968 535.965 Q27.4968 535.361 27.5923 534.629 Q27.656 533.896 27.8151 533.005 L33.8307 532.973 Z" fill="#000000" fill-rule="evenodd" fill-opacity="1"></path><polyline clip-path="url(#clip862)" style="stroke:#009af9; stroke-linecap:butt; stroke-linejoin:round; stroke-width:4; stroke-opacity:1; fill:none" points="
  281.018,1384.24 281.954,1382.99 282.369,1382.43 283.033,1381.56 283.592,1380.83 284.242,1379.98 284.886,1379.15 285.578,1378.27 286.279,1377.38 286.994,1376.48 
  287.714,1375.57 288.447,1374.66 289.196,1373.73 289.96,1372.78 290.723,1371.83 291.483,1370.89 292.246,1369.95 293.019,1369 293.804,1368.04 294.588,1367.08 
  295.363,1366.13 296.133,1365.19 296.909,1364.24 297.697,1363.27 298.484,1362.31 299.259,1361.35 300.031,1360.4 300.806,1359.45 301.591,1358.48 302.38,1357.5 
  303.158,1356.54 303.93,1355.59 304.704,1354.63 305.49,1353.66 306.279,1352.67 307.058,1351.7 307.831,1350.73 308.608,1349.76 309.396,1348.76 310.189,1347.75 
  310.973,1346.75 311.751,1345.74 312.532,1344.72 313.326,1343.65 314.124,1342.56 314.911,1341.44 315.695,1340.29 316.486,1339.07 317.288,1337.77 318.091,1336.39 
  318.885,1334.97 319.678,1333.48 320.479,1331.92 321.291,1330.28 322.1,1328.62 322.902,1326.96 323.707,1325.29 324.521,1323.62 325.342,1321.96 326.158,1320.35 
  326.971,1318.77 327.79,1317.2 328.618,1315.62 329.447,1314.02 330.272,1312.42 331.099,1310.78 331.933,1309.11 332.774,1307.4 333.612,1305.69 334.45,1303.99 
  335.293,1302.3 336.143,1300.62 336.995,1298.97 337.846,1297.32 338.699,1295.67 339.56,1294 340.424,1292.3 341.289,1290.56 342.155,1288.8 343.027,1287.02 
  343.904,1285.22 344.782,1283.42 345.662,1281.64 346.546,1279.87 347.436,1278.12 348.328,1276.39 349.221,1274.67 350.116,1272.93 351.017,1271.14 351.918,1269.22 
  352.818,1267.11 353.719,1264.75 354.621,1262.12 355.517,1259.28 356.407,1256.34 357.299,1253.37 358.193,1250.5 359.08,1247.83 359.959,1245.38 360.835,1243.12 
  361.708,1240.94 362.58,1238.71 363.451,1236.36 364.309,1233.87 365.155,1231.27 365.999,1228.62 366.845,1226.01 367.687,1223.54 368.522,1221.27 369.353,1219.19 
  370.181,1217.22 371.009,1215.26 371.839,1213.2 372.664,1211 373.479,1208.68 374.29,1206.28 375.102,1203.86 375.917,1201.51 376.728,1199.33 377.534,1197.31 
  378.339,1195.43 379.143,1193.6 379.951,1191.73 380.76,1189.75 381.563,1187.64 382.361,1185.43 383.158,1183.16 383.96,1180.91 384.763,1178.75 385.563,1176.74 
  386.36,1174.87 387.158,1173.09 387.958,1171.32 388.762,1169.48 389.565,1167.53 390.363,1165.48 391.16,1163.35 391.961,1161.18 392.765,1159.06 393.569,1157.04 
  394.371,1155.16 395.174,1153.37 395.978,1151.62 396.786,1149.85 397.597,1148 398.406,1146.06 399.213,1144.02 400.023,1141.94 400.837,1139.86 401.653,1137.85 
  402.469,1135.94 403.285,1134.12 404.103,1132.37 404.925,1130.61 405.751,1128.79 406.577,1126.9 407.403,1124.93 408.23,1122.9 409.062,1120.86 409.898,1118.86 
  410.735,1116.94 411.572,1115.1 412.412,1113.31 413.257,1111.52 414.105,1109.7 414.956,1107.81 415.807,1105.85 416.66,1103.84 417.518,1101.82 418.381,1099.82 
  419.246,1097.87 420.112,1095.99 420.981,1094.15 421.855,1092.3 422.734,1090.42 423.615,1088.48 424.499,1086.48 425.385,1084.45 426.276,1082.41 427.173,1080.4 
  428.072,1078.44 428.973,1076.52 429.879,1074.63 430.79,1072.72 431.706,1070.78 432.624,1068.78 433.546,1066.75 434.472,1064.69 435.404,1062.65 436.34,1060.63 
  437.28,1058.66 438.223,1056.71 439.171,1054.76 440.126,1052.77 441.085,1050.74 442.046,1048.68 443.012,1046.59 443.985,1044.51 444.963,1042.46 445.945,1040.43 
  446.931,1038.43 447.922,1036.42 448.921,1034.37 449.924,1032.29 450.93,1030.17 451.942,1028.04 452.961,1025.92 453.986,1023.83 455.014,1021.75 456.048,1019.67 
  457.089,1017.57 458.137,1015.41 459.188,1013.23 460.244,1011.02 461.308,1008.8 462.379,1006.6 463.454,1004.43 464.534,1002.26 465.623,1000.07 466.72,997.849 
  467.82,995.6 468.926,993.334 470.042,991.063 471.165,988.803 472.293,986.561 473.427,984.318 474.572,982.048 475.724,979.748 476.88,977.429 478.045,975.097 
  479.22,972.765 480.402,970.446 481.589,968.133 482.787,965.798 483.995,963.432 485.207,961.048 486.428,958.652 487.661,956.251 488.901,953.859 490.147,951.471 
  491.404,949.061 492.672,946.62 493.945,944.165 495.227,941.701 496.523,939.231 497.824,936.772 499.132,934.309 500.455,931.814 501.785,929.297 503.121,926.774 
  504.47,924.241 505.83,921.711 507.194,919.187 508.571,916.637 509.96,914.059 511.352,911.477 512.758,908.886 514.176,906.293 515.596,903.71 517.031,901.102 
  518.477,898.466 519.925,895.831 521.389,893.185 522.863,890.54 524.339,887.903 525.831,885.236 527.332,882.551 528.835,879.87 530.357,877.176 531.882,874.494 
  533.413,871.808 534.962,869.088 536.511,866.371 538.071,863.65 539.645,860.923 541.217,858.214 542.806,855.477 544.403,852.725 545.999,849.985 547.615,847.23 
  549.231,844.492 550.855,841.745 552.496,838.969 554.131,836.211 555.785,833.438 557.444,830.676 559.104,827.917 560.786,825.123 562.461,822.348 564.153,819.561 
  565.853,816.777 567.551,814.004 569.273,811.193 570.988,808.402 572.721,805.599 574.462,802.8 576.202,800.009 577.967,797.181 579.723,794.377 581.502,791.554 
  583.284,788.742 585.072,785.926 586.88,783.082 588.682,780.261 590.512,777.414 592.336,774.589 594.18,771.739 596.033,768.882 597.89,766.034 599.771,763.165 
  601.645,760.317 603.55,757.429 605.45,754.56 607.374,751.669 609.303,748.787 611.246,745.893 613.206,742.981 615.168,740.08 617.159,737.155 619.145,734.247 
  621.165,731.298 623.177,728.373 625.225,725.414 627.268,722.475 629.343,719.499 631.417,716.537 633.52,713.551 635.626,710.574 637.759,707.57 639.898,704.571 
  642.062,701.554 644.234,698.54 646.431,695.503 648.636,692.469 650.868,689.415 653.106,686.369 655.375,683.291 657.645,680.229 659.953,677.133 662.256,674.057 
  664.601,670.938 666.94,667.847 669.322,664.715 671.7,661.602 674.114,658.458 676.536,655.322 678.978,652.175 681.448,649.009 683.919,645.858 686.432,642.673 
  688.94,639.51 691.485,636.318 694.04,633.131 696.609,629.945 699.213,626.732 701.812,623.544 704.448,620.33 707.095,617.118 709.75,613.917 712.442,610.691 
  715.131,607.485 717.844,604.271 720.581,601.047 723.315,597.845 726.079,594.627 728.857,591.414 731.635,588.218 734.444,585.008 737.259,581.81 740.077,578.627 
  742.924,575.432 745.774,572.253 748.626,569.091 751.505,565.919 754.387,562.765 757.268,559.63 760.174,556.488 763.084,553.362 765.99,550.26 768.916,547.156 
  771.852,544.062 774.778,540.997 777.72,537.936 780.675,534.88 783.62,531.854 786.574,528.839 789.543,525.828 792.505,522.843 795.468,519.876 798.447,516.913 
  801.422,513.972 804.392,511.057 807.376,508.145 810.363,505.25 813.338,502.386 816.322,499.531 819.316,496.684 822.297,493.87 825.277,491.074 828.271,488.284 
  831.258,485.518 834.235,482.779 837.221,480.05 840.209,477.337 843.185,474.652 846.162,471.984 849.143,469.329 852.114,466.701 855.083,464.091 858.057,461.495 
  861.021,458.923 863.979,456.374 866.943,453.835 869.902,451.317 872.849,448.827 875.799,446.348 878.752,443.884 881.691,441.447 884.629,439.027 887.572,436.618 
  890.506,434.233 893.435,431.865 896.368,429.51 899.296,427.175 902.219,424.859 905.146,422.554 908.07,420.266 910.989,417.997 913.911,415.74 916.834,413.496 
  919.753,411.27 922.673,409.057 925.597,406.856 928.519,404.67 931.444,402.496 934.373,400.334 937.298,398.187 940.23,396.05 943.17,393.92 946.105,391.808 
  949.042,389.708 951.992,387.612 954.945,385.528 957.891,383.463 960.846,381.404 963.813,379.35 966.775,377.313 969.735,375.291 972.703,373.277 975.676,371.273 
  978.646,369.283 981.61,367.31 984.574,365.351 987.541,363.402 990.503,361.469 993.45,359.559 996.393,357.663 999.338,355.779 1002.27,353.916 1005.18,352.076 
  1008.09,350.25 1011,348.437 1013.88,346.649 1016.75,344.883 1019.62,343.126 1022.49,341.384 1025.33,339.667 1028.16,337.968 1031,336.275 1033.83,334.598 
  1036.63,332.945 1039.43,331.305 1042.24,329.672 1045.04,328.054 1047.81,326.458 1050.58,324.876 1053.36,323.3 1056.12,321.741 1058.87,320.203 1061.6,318.679 
  1064.34,317.163 1067.06,315.664 1069.75,314.188 1072.45,312.724 1075.14,311.267 1077.81,309.833 1080.46,308.417 1083.11,307.007 1085.75,305.611 1088.37,304.236 
  1090.98,302.87 1093.6,301.511 1096.2,300.172 1098.79,298.843 1101.38,297.518 1103.96,296.209 1106.54,294.911 1109.12,293.616 1111.69,292.333 1114.26,291.059 
  1116.84,289.789 1119.41,288.527 1121.98,287.275 1124.56,286.024 1127.14,284.781 1129.72,283.546 1132.31,282.313 1134.9,281.086 1137.49,279.865 1140.09,278.648 
  1142.7,277.434 1145.3,276.228 1147.92,275.024 1150.54,273.825 1153.17,272.631 1155.8,271.442 1158.43,270.256 1161.07,269.076 1163.72,267.902 1166.37,266.731 
  1169.02,265.566 1171.68,264.406 1174.34,263.252 1177.01,262.102 1179.67,260.959 1182.34,259.821 1185.02,258.688 1187.69,257.561 1190.37,256.44 1193.05,255.325 
  1195.74,254.215 1198.42,253.111 1201.11,252.013 1203.8,250.919 1206.49,249.831 1209.18,248.75 1211.88,247.673 1214.59,246.601 1217.29,245.536 1219.99,244.475 
  1222.71,243.418 1225.42,242.368 1228.13,241.324 1230.85,240.284 1233.58,239.248 1236.3,238.22 1239.02,237.198 1241.75,236.178 1244.48,235.164 1247.2,234.161 
  1249.93,233.16 1252.67,232.163 1255.39,231.177 1258.12,230.197 1260.85,229.221 1263.57,228.251 1266.29,227.292 1269,226.338 1271.73,225.387 1274.44,224.446 
  1277.14,223.515 1279.84,222.587 1282.55,221.664 1285.24,220.753 1287.93,219.847 1290.63,218.945 1293.31,218.051 1295.99,217.167 1298.67,216.285 1301.35,215.409 
  1304.02,214.542 1306.69,213.681 1309.36,212.822 1312.03,211.972 1314.69,211.129 1317.35,210.289 1320.02,209.453 1322.67,208.627 1325.33,207.805 1327.99,206.986 
  1330.64,206.173 1333.29,205.368 1335.94,204.566 1338.6,203.768 1341.24,202.978 1343.89,202.192 1346.54,201.409 1349.18,200.633 1351.82,199.863 1354.47,199.096 
  1357.11,198.333 1359.75,197.577 1362.39,196.825 1365.03,196.076 1367.67,195.333 1370.3,194.596 1372.94,193.862 1375.58,193.132 1378.21,192.408 1380.84,191.688 
  1383.48,190.971 1386.12,190.259 1388.75,189.552 1391.38,188.849 1394.02,188.149 1396.65,187.455 1399.27,186.766 1401.91,186.078 1404.54,185.396 1407.16,184.72 
  1409.8,184.046 1412.43,183.375 1415.05,182.712 1417.67,182.051 1420.3,181.393 1422.92,180.741 1425.54,180.094 1428.16,179.448 1430.78,178.808 1433.39,178.174 
  1436.01,177.542 1438.63,176.913 1441.24,176.29 1443.84,175.672 1446.46,175.055 1449.06,174.443 1451.66,173.837 1454.27,173.233 1456.87,172.632 1459.47,172.038 
  1462.07,171.446 1464.67,170.856 1467.26,170.272 1469.85,169.692 1472.45,169.114 1475.04,168.54 1477.63,167.971 1480.22,167.404 1482.81,166.84 1485.4,166.282 
  1487.99,165.725 1490.57,165.172 1493.16,164.623 1495.74,164.077 1498.33,163.534 1500.91,162.995 1503.5,162.458 1506.08,161.925 1508.66,161.395 1511.24,160.868 
  1513.83,160.345 1516.41,159.824 1518.99,159.307 1521.57,158.792 1524.15,158.281 1526.73,157.772 1529.31,157.267 1531.89,156.764 1534.47,156.265 1537.06,155.768 
  1539.64,155.274 1542.21,154.783 1544.8,154.295 1547.38,153.809 1549.95,153.328 1552.54,152.848 1555.12,152.37 1557.7,151.897 1560.27,151.426 1562.86,150.957 
  1565.43,150.491 1568.01,150.029 1570.59,149.568 1573.17,149.111 1575.74,148.657 1578.32,148.204 1580.9,147.755 1583.47,147.308 1586.05,146.865 1588.62,146.423 
  1591.2,145.984 1593.77,145.548 1596.35,145.115 1598.92,144.684 1601.49,144.255 1604.07,143.829 1606.64,143.406 1609.21,142.985 1611.79,142.566 1614.36,142.15 
  1616.93,141.736 1619.51,141.325 1622.08,140.916 1624.65,140.509 1627.23,140.104 1629.8,139.702 1632.38,139.302 1634.96,138.904 1637.53,138.509 1640.11,138.116 
  1642.69,137.724 1645.27,137.335 1647.84,136.949 1650.42,136.564 1653.01,136.181 1655.59,135.801 1658.17,135.423 1660.75,135.046 1663.33,134.672 1665.92,134.301 
  1668.5,133.931 1671.09,133.563 1673.67,133.197 1676.25,132.834 1678.84,132.472 1681.43,132.112 1684.01,131.755 1686.6,131.399 1689.19,131.046 1691.77,130.695 
  1694.36,130.346 1696.94,129.998 1699.53,129.653 1702.12,129.31 1704.71,128.968 1707.29,128.629 1709.88,128.292 1712.47,127.956 1715.06,127.622 1717.64,127.291 
  1720.23,126.961 1722.82,126.633 1725.41,126.307 1728,125.983 1730.59,125.661 1733.18,125.341 1735.76,125.022 1738.35,124.706 1740.95,124.391 1743.54,124.078 
  1746.12,123.767 1748.72,123.457 1751.31,123.149 1753.9,122.843 1756.49,122.539 1759.08,122.236 1761.68,121.936 1764.27,121.637 1766.86,121.339 1769.46,121.044 
  1772.05,120.75 1774.65,120.457 1777.24,120.167 1779.84,119.878 1782.43,119.59 1785.03,119.304 1787.63,119.02 1790.22,118.738 1792.82,118.457 1795.42,118.178 
  1798.02,117.9 1800.62,117.624 1803.22,117.349 1805.82,117.076 1808.42,116.805 1811.02,116.535 1813.62,116.266 1816.22,115.999 1818.83,115.734 1821.43,115.47 
  1824.03,115.208 1826.64,114.947 1829.24,114.687 1831.85,114.43 1834.45,114.173 1837.06,113.918 1839.66,113.665 1842.27,113.412 1844.88,113.162 1847.49,112.913 
  1850.09,112.665 1852.7,112.418 1855.31,112.174 1857.92,111.93 1860.53,111.688 1863.14,111.447 1865.75,111.208 1868.36,110.97 1870.97,110.733 1873.58,110.498 
  1876.2,110.264 1878.81,110.031 1881.42,109.8 1884.03,109.57 1886.65,109.341 1889.26,109.114 1891.88,108.888 1894.49,108.663 1897.11,108.44 1899.72,108.218 
  1902.34,107.997 1904.95,107.777 1907.57,107.559 1910.19,107.342 1912.8,107.126 1915.42,106.912 1918.04,106.698 1920.65,106.487 1923.27,106.276 1925.89,106.066 
  1928.51,105.858 1931.12,105.651 1933.74,105.445 1936.36,105.24 1938.98,105.037 1941.6,104.834 1944.22,104.633 1946.83,104.433 1949.45,104.235 1952.07,104.037 
  1954.69,103.841 1957.31,103.646 1959.92,103.452 1962.54,103.259 1965.16,103.067 1967.78,102.876 1970.39,102.687 1973.01,102.499 1975.63,102.312 1978.24,102.126 
  1980.86,101.941 1983.47,101.757 1986.09,101.574 1988.7,101.393 1991.32,101.212 1993.93,101.033 1996.55,100.854 1999.16,100.677 2001.77,100.501 2004.39,100.326 
  2007,100.152 2009.61,99.9786 2012.22,99.8066 2014.84,99.6357 2017.45,99.4657 2020.06,99.2969 2022.67,99.129 2025.28,98.9621 2027.89,98.7963 2030.5,98.6315 
  2033.11,98.4675 2035.71,98.3048 2038.32,98.1429 2040.93,97.9819 2043.54,97.8221 2046.14,97.6631 2048.75,97.5051 2051.35,97.3482 2053.96,97.192 2056.56,97.0369 
  2059.17,96.8828 2061.77,96.7294 2064.38,96.5771 2066.98,96.4258 2069.58,96.2752 2072.18,96.1257 2074.78,95.977 2077.38,95.8292 2079.99,95.6824 2082.58,95.5363 
  2085.18,95.3913 2087.78,95.2471 2090.38,95.1037 2092.98,94.9613 2095.58,94.8197 2098.17,94.6788 2100.77,94.539 2103.36,94.4 2105.96,94.2617 2108.55,94.1244 
  2111.15,93.9878 2113.74,93.8521 2116.34,93.7172 2118.93,93.5831 2121.52,93.4499 2124.11,93.3174 2126.7,93.1857 2129.29,93.0549 2131.88,92.9248 2134.47,92.7954 
  2137.06,92.6669 2139.65,92.5392 2142.24,92.4121 2144.83,92.2859 2147.42,92.1605 2150,92.0357 2152.59,91.9118 2155.18,91.7885 2157.76,91.6661 2160.35,91.5443 
  2162.94,91.4232 2165.52,91.3029 2168.11,91.1833 2170.69,91.0643 2173.28,90.9462 2175.86,90.8288 2178.45,90.7119 2181.03,90.5959 2183.61,90.4805 2186.2,90.3658 
  2188.78,90.2517 2191.36,90.1383 2193.94,90.0257 2196.53,89.9137 2199.11,89.8022 2201.69,89.6916 2204.27,89.5816 2206.85,89.4721 2209.43,89.3634 2212.02,89.2553 
  2214.6,89.1478 2217.18,89.041 2219.76,88.9348 2222.34,88.8292 2224.92,88.7242 2227.5,88.6198 2230.08,88.5162 2232.66,88.413 2235.24,88.3104 2237.82,88.2086 
  2240.4,88.1072 2242.98,88.0064 2245.56,87.9063 2248.14,87.8068 2250.72,87.7077 2253.3,87.6094 2255.88,87.5115 2258.46,87.4142 2261.04,87.3176 2263.62,87.2214 
  2266.2,87.1259 2268.78,87.0308 2271.36,86.9363 2273.94,86.8424 2276.52,86.749 2279.1,86.6561 2281.68,86.5639 2284.26,86.4721 2286.84,86.3808 2289.42,86.2902 
  2292,86.1999 2292.41,86.1857 
  "></polyline>
<path clip-path="url(#clip860)" d="
M291.746 196.789 L849.822 196.789 L849.822 93.1086 L291.746 93.1086  Z
  " fill="#ffffff" fill-rule="evenodd" fill-opacity="1"></path>
<polyline clip-path="url(#clip860)" style="stroke:#000000; stroke-linecap:butt; stroke-linejoin:round; stroke-width:4; stroke-opacity:1; fill:none" points="
  291.746,196.789 849.822,196.789 849.822,93.1086 291.746,93.1086 291.746,196.789 
  "></polyline>
<polyline clip-path="url(#clip860)" style="stroke:#009af9; stroke-linecap:butt; stroke-linejoin:round; stroke-width:4; stroke-opacity:1; fill:none" points="
  315.436,144.949 457.574,144.949 
  "></polyline>
<path clip-path="url(#clip860)" d="M488.671 128.942 L488.671 136.303 L497.444 136.303 L497.444 139.613 L488.671 139.613 L488.671 153.687 Q488.671 156.858 489.528 157.761 Q490.407 158.664 493.069 158.664 L497.444 158.664 L497.444 162.229 L493.069 162.229 Q488.139 162.229 486.264 160.4 Q484.389 158.548 484.389 153.687 L484.389 139.613 L481.264 139.613 L481.264 136.303 L484.389 136.303 L484.389 128.942 L488.671 128.942 Z" fill="#000000" fill-rule="evenodd" fill-opacity="1"></path><path clip-path="url(#clip860)" d="M514.829 149.196 Q509.667 149.196 507.676 150.377 Q505.685 151.557 505.685 154.405 Q505.685 156.673 507.167 158.016 Q508.671 159.335 511.241 159.335 Q514.782 159.335 516.912 156.835 Q519.065 154.312 519.065 150.145 L519.065 149.196 L514.829 149.196 M523.324 147.437 L523.324 162.229 L519.065 162.229 L519.065 158.293 Q517.606 160.655 515.43 161.789 Q513.255 162.9 510.106 162.9 Q506.125 162.9 503.764 160.678 Q501.426 158.432 501.426 154.682 Q501.426 150.307 504.343 148.085 Q507.282 145.863 513.092 145.863 L519.065 145.863 L519.065 145.446 Q519.065 142.507 517.12 140.909 Q515.199 139.289 511.704 139.289 Q509.481 139.289 507.375 139.821 Q505.268 140.354 503.324 141.419 L503.324 137.483 Q505.662 136.581 507.861 136.141 Q510.06 135.678 512.143 135.678 Q517.768 135.678 520.546 138.594 Q523.324 141.511 523.324 147.437 Z" fill="#000000" fill-rule="evenodd" fill-opacity="1"></path><path clip-path="url(#clip860)" d="M553.648 146.581 L553.648 162.229 L549.389 162.229 L549.389 146.719 Q549.389 143.039 547.953 141.21 Q546.518 139.382 543.648 139.382 Q540.199 139.382 538.208 141.581 Q536.217 143.78 536.217 147.576 L536.217 162.229 L531.935 162.229 L531.935 136.303 L536.217 136.303 L536.217 140.331 Q537.745 137.993 539.805 136.835 Q541.889 135.678 544.597 135.678 Q549.064 135.678 551.356 138.456 Q553.648 141.21 553.648 146.581 Z" fill="#000000" fill-rule="evenodd" fill-opacity="1"></path><path clip-path="url(#clip860)" d="M561.981 126.21 L566.263 126.21 L566.263 147.483 L578.972 136.303 L584.412 136.303 L570.662 148.432 L584.99 162.229 L579.435 162.229 L566.263 149.567 L566.263 162.229 L561.981 162.229 L561.981 126.21 Z" fill="#000000" fill-rule="evenodd" fill-opacity="1"></path><path clip-path="url(#clip860)" d="M608.786 158.34 L608.786 172.09 L604.504 172.09 L604.504 136.303 L608.786 136.303 L608.786 140.238 Q610.129 137.923 612.166 136.812 Q614.226 135.678 617.073 135.678 Q621.796 135.678 624.735 139.428 Q627.698 143.178 627.698 149.289 Q627.698 155.4 624.735 159.15 Q621.796 162.9 617.073 162.9 Q614.226 162.9 612.166 161.789 Q610.129 160.655 608.786 158.34 M623.277 149.289 Q623.277 144.59 621.333 141.928 Q619.411 139.243 616.032 139.243 Q612.652 139.243 610.708 141.928 Q608.786 144.59 608.786 149.289 Q608.786 153.988 610.708 156.673 Q612.652 159.335 616.032 159.335 Q619.411 159.335 621.333 156.673 Q623.277 153.988 623.277 149.289 Z" fill="#000000" fill-rule="evenodd" fill-opacity="1"></path><path clip-path="url(#clip860)" d="M649.782 140.284 Q649.064 139.868 648.207 139.682 Q647.374 139.474 646.356 139.474 Q642.745 139.474 640.8 141.835 Q638.879 144.173 638.879 148.571 L638.879 162.229 L634.596 162.229 L634.596 136.303 L638.879 136.303 L638.879 140.331 Q640.221 137.969 642.374 136.835 Q644.527 135.678 647.606 135.678 Q648.045 135.678 648.578 135.747 Q649.11 135.794 649.758 135.909 L649.782 140.284 Z" fill="#000000" fill-rule="evenodd" fill-opacity="1"></path><path clip-path="url(#clip860)" d="M675.383 148.201 L675.383 150.284 L655.8 150.284 Q656.078 154.682 658.439 156.997 Q660.823 159.289 665.059 159.289 Q667.513 159.289 669.805 158.687 Q672.119 158.085 674.388 156.881 L674.388 160.909 Q672.096 161.881 669.689 162.391 Q667.281 162.9 664.805 162.9 Q658.601 162.9 654.967 159.289 Q651.356 155.678 651.356 149.52 Q651.356 143.155 654.782 139.428 Q658.231 135.678 664.064 135.678 Q669.295 135.678 672.328 139.057 Q675.383 142.414 675.383 148.201 M671.124 146.951 Q671.078 143.456 669.156 141.372 Q667.258 139.289 664.11 139.289 Q660.545 139.289 658.393 141.303 Q656.263 143.317 655.939 146.974 L671.124 146.951 Z" fill="#000000" fill-rule="evenodd" fill-opacity="1"></path><path clip-path="url(#clip860)" d="M698.902 137.067 L698.902 141.094 Q697.096 140.169 695.152 139.706 Q693.207 139.243 691.124 139.243 Q687.953 139.243 686.355 140.215 Q684.781 141.187 684.781 143.131 Q684.781 144.613 685.916 145.469 Q687.05 146.303 690.476 147.067 L691.934 147.391 Q696.471 148.363 698.369 150.145 Q700.291 151.905 700.291 155.076 Q700.291 158.687 697.42 160.793 Q694.573 162.9 689.573 162.9 Q687.49 162.9 685.221 162.483 Q682.976 162.09 680.476 161.28 L680.476 156.881 Q682.837 158.108 685.129 158.733 Q687.42 159.335 689.666 159.335 Q692.675 159.335 694.295 158.317 Q695.916 157.275 695.916 155.4 Q695.916 153.664 694.735 152.738 Q693.578 151.812 689.619 150.956 L688.138 150.608 Q684.18 149.775 682.42 148.062 Q680.661 146.326 680.661 143.317 Q680.661 139.659 683.254 137.669 Q685.846 135.678 690.615 135.678 Q692.976 135.678 695.059 136.025 Q697.142 136.372 698.902 137.067 Z" fill="#000000" fill-rule="evenodd" fill-opacity="1"></path><path clip-path="url(#clip860)" d="M723.601 137.067 L723.601 141.094 Q721.795 140.169 719.851 139.706 Q717.906 139.243 715.823 139.243 Q712.652 139.243 711.054 140.215 Q709.48 141.187 709.48 143.131 Q709.48 144.613 710.615 145.469 Q711.749 146.303 715.175 147.067 L716.633 147.391 Q721.17 148.363 723.068 150.145 Q724.989 151.905 724.989 155.076 Q724.989 158.687 722.119 160.793 Q719.272 162.9 714.272 162.9 Q712.189 162.9 709.92 162.483 Q707.675 162.09 705.175 161.28 L705.175 156.881 Q707.536 158.108 709.828 158.733 Q712.119 159.335 714.365 159.335 Q717.374 159.335 718.994 158.317 Q720.615 157.275 720.615 155.4 Q720.615 153.664 719.434 152.738 Q718.277 151.812 714.318 150.956 L712.837 150.608 Q708.878 149.775 707.119 148.062 Q705.36 146.326 705.36 143.317 Q705.36 139.659 707.953 137.669 Q710.545 135.678 715.314 135.678 Q717.675 135.678 719.758 136.025 Q721.841 136.372 723.601 137.067 Z" fill="#000000" fill-rule="evenodd" fill-opacity="1"></path><path clip-path="url(#clip860)" d="M731.332 151.997 L731.332 136.303 L735.591 136.303 L735.591 151.835 Q735.591 155.516 737.026 157.368 Q738.462 159.196 741.332 159.196 Q744.781 159.196 746.772 156.997 Q748.786 154.798 748.786 151.002 L748.786 136.303 L753.045 136.303 L753.045 162.229 L748.786 162.229 L748.786 158.247 Q747.235 160.608 745.175 161.766 Q743.138 162.9 740.429 162.9 Q735.962 162.9 733.647 160.122 Q731.332 157.344 731.332 151.997 M742.05 135.678 L742.05 135.678 Z" fill="#000000" fill-rule="evenodd" fill-opacity="1"></path><path clip-path="url(#clip860)" d="M776.841 140.284 Q776.123 139.868 775.267 139.682 Q774.434 139.474 773.415 139.474 Q769.804 139.474 767.86 141.835 Q765.938 144.173 765.938 148.571 L765.938 162.229 L761.656 162.229 L761.656 136.303 L765.938 136.303 L765.938 140.331 Q767.281 137.969 769.434 136.835 Q771.586 135.678 774.665 135.678 Q775.105 135.678 775.637 135.747 Q776.17 135.794 776.818 135.909 L776.841 140.284 Z" fill="#000000" fill-rule="evenodd" fill-opacity="1"></path><path clip-path="url(#clip860)" d="M802.443 148.201 L802.443 150.284 L782.86 150.284 Q783.137 154.682 785.498 156.997 Q787.883 159.289 792.119 159.289 Q794.572 159.289 796.864 158.687 Q799.179 158.085 801.447 156.881 L801.447 160.909 Q799.156 161.881 796.748 162.391 Q794.341 162.9 791.864 162.9 Q785.66 162.9 782.026 159.289 Q778.415 155.678 778.415 149.52 Q778.415 143.155 781.841 139.428 Q785.29 135.678 791.123 135.678 Q796.355 135.678 799.387 139.057 Q802.443 142.414 802.443 148.201 M798.184 146.951 Q798.137 143.456 796.216 141.372 Q794.318 139.289 791.17 139.289 Q787.605 139.289 785.452 141.303 Q783.323 143.317 782.998 146.974 L798.184 146.951 Z" fill="#000000" fill-rule="evenodd" fill-opacity="1"></path></svg>