<svg xmlns="http://www.w3.org/2000/svg" xmlns:xlink="http://www.w3.org/1999/xlink" width="600" height="400" viewBox="0 0 2400 1600">
<defs>
  <clipPath id="clip740">
    <rect x="0" y="0" width="2400" height="1600"></rect>
  </clipPath>
</defs>
<path clip-path="url(#clip740)" d="
M0 1600 L2400 1600 L2400 0 L0 0  Z
  " fill="#ffffff" fill-rule="evenodd" fill-opacity="1"></path>
<defs>
  <clipPath id="clip741">
    <rect x="480" y="0" width="1681" height="1600"></rect>
  </clipPath>
</defs>
<path clip-path="url(#clip740)" d="
M202.714 1423.18 L2352.76 1423.18 L2352.76 47.2441 L202.714 47.2441  Z
  " fill="#ffffff" fill-rule="evenodd" fill-opacity="1"></path>
<defs>
  <clipPath id="clip742">
    <rect x="202" y="47" width="2151" height="1377"></rect>
  </clipPath>
</defs>
<polyline clip-path="url(#clip742)" style="stroke:#000000; stroke-linecap:butt; stroke-linejoin:round; stroke-width:2; stroke-opacity:0.1; fill:none" points="
  263.564,1423.18 263.564,47.2441 
  "></polyline>
<polyline clip-path="url(#clip742)" style="stroke:#000000; stroke-linecap:butt; stroke-linejoin:round; stroke-width:2; stroke-opacity:0.1; fill:none" points="
  939.678,1423.18 939.678,47.2441 
  "></polyline>
<polyline clip-path="url(#clip742)" style="stroke:#000000; stroke-linecap:butt; stroke-linejoin:round; stroke-width:2; stroke-opacity:0.1; fill:none" points="
  1615.79,1423.18 1615.79,47.2441 
  "></polyline>
<polyline clip-path="url(#clip742)" style="stroke:#000000; stroke-linecap:butt; stroke-linejoin:round; stroke-width:2; stroke-opacity:0.1; fill:none" points="
  2291.91,1423.18 2291.91,47.2441 
  "></polyline>
<polyline clip-path="url(#clip740)" style="stroke:#000000; stroke-linecap:butt; stroke-linejoin:round; stroke-width:4; stroke-opacity:1; fill:none" points="
  202.714,1423.18 2352.76,1423.18 
  "></polyline>
<polyline clip-path="url(#clip740)" style="stroke:#000000; stroke-linecap:butt; stroke-linejoin:round; stroke-width:4; stroke-opacity:1; fill:none" points="
  263.564,1423.18 263.564,1404.28 
  "></polyline>
<polyline clip-path="url(#clip740)" style="stroke:#000000; stroke-linecap:butt; stroke-linejoin:round; stroke-width:4; stroke-opacity:1; fill:none" points="
  939.678,1423.18 939.678,1404.28 
  "></polyline>
<polyline clip-path="url(#clip740)" style="stroke:#000000; stroke-linecap:butt; stroke-linejoin:round; stroke-width:4; stroke-opacity:1; fill:none" points="
  1615.79,1423.18 1615.79,1404.28 
  "></polyline>
<polyline clip-path="url(#clip740)" style="stroke:#000000; stroke-linecap:butt; stroke-linejoin:round; stroke-width:4; stroke-opacity:1; fill:none" points="
  2291.91,1423.18 2291.91,1404.28 
  "></polyline>
<path clip-path="url(#clip740)" d="M263.564 1454.1 Q259.953 1454.1 258.124 1457.66 Q256.319 1461.2 256.319 1468.33 Q256.319 1475.44 258.124 1479.01 Q259.953 1482.55 263.564 1482.55 Q267.198 1482.55 269.004 1479.01 Q270.832 1475.44 270.832 1468.33 Q270.832 1461.2 269.004 1457.66 Q267.198 1454.1 263.564 1454.1 M263.564 1450.39 Q269.374 1450.39 272.43 1455 Q275.508 1459.58 275.508 1468.33 Q275.508 1477.06 272.43 1481.67 Q269.374 1486.25 263.564 1486.25 Q257.754 1486.25 254.675 1481.67 Q251.619 1477.06 251.619 1468.33 Q251.619 1459.58 254.675 1455 Q257.754 1450.39 263.564 1450.39 Z" fill="#000000" fill-rule="evenodd" fill-opacity="1"></path><path clip-path="url(#clip740)" d="M929.956 1451.02 L948.312 1451.02 L948.312 1454.96 L934.238 1454.96 L934.238 1463.43 Q935.257 1463.08 936.275 1462.92 Q937.294 1462.73 938.312 1462.73 Q944.099 1462.73 947.479 1465.9 Q950.858 1469.08 950.858 1474.49 Q950.858 1480.07 947.386 1483.17 Q943.914 1486.25 937.594 1486.25 Q935.419 1486.25 933.15 1485.88 Q930.905 1485.51 928.497 1484.77 L928.497 1480.07 Q930.581 1481.2 932.803 1481.76 Q935.025 1482.32 937.502 1482.32 Q941.506 1482.32 943.844 1480.21 Q946.182 1478.1 946.182 1474.49 Q946.182 1470.88 943.844 1468.77 Q941.506 1466.67 937.502 1466.67 Q935.627 1466.67 933.752 1467.08 Q931.9 1467.5 929.956 1468.38 L929.956 1451.02 Z" fill="#000000" fill-rule="evenodd" fill-opacity="1"></path><path clip-path="url(#clip740)" d="M1590.48 1481.64 L1598.12 1481.64 L1598.12 1455.28 L1589.81 1456.95 L1589.81 1452.69 L1598.07 1451.02 L1602.75 1451.02 L1602.75 1481.64 L1610.39 1481.64 L1610.39 1485.58 L1590.48 1485.58 L1590.48 1481.64 Z" fill="#000000" fill-rule="evenodd" fill-opacity="1"></path><path clip-path="url(#clip740)" d="M1629.83 1454.1 Q1626.22 1454.1 1624.39 1457.66 Q1622.59 1461.2 1622.59 1468.33 Q1622.59 1475.44 1624.39 1479.01 Q1626.22 1482.55 1629.83 1482.55 Q1633.47 1482.55 1635.27 1479.01 Q1637.1 1475.44 1637.1 1468.33 Q1637.1 1461.2 1635.27 1457.66 Q1633.47 1454.1 1629.83 1454.1 M1629.83 1450.39 Q1635.64 1450.39 1638.7 1455 Q1641.78 1459.58 1641.78 1468.33 Q1641.78 1477.06 1638.7 1481.67 Q1635.64 1486.25 1629.83 1486.25 Q1624.02 1486.25 1620.94 1481.67 Q1617.89 1477.06 1617.89 1468.33 Q1617.89 1459.58 1620.94 1455 Q1624.02 1450.39 1629.83 1450.39 Z" fill="#000000" fill-rule="evenodd" fill-opacity="1"></path><path clip-path="url(#clip740)" d="M2267.09 1481.64 L2274.73 1481.64 L2274.73 1455.28 L2266.42 1456.95 L2266.42 1452.69 L2274.68 1451.02 L2279.36 1451.02 L2279.36 1481.64 L2287 1481.64 L2287 1485.58 L2267.09 1485.58 L2267.09 1481.64 Z" fill="#000000" fill-rule="evenodd" fill-opacity="1"></path><path clip-path="url(#clip740)" d="M2296.49 1451.02 L2314.85 1451.02 L2314.85 1454.96 L2300.77 1454.96 L2300.77 1463.43 Q2301.79 1463.08 2302.81 1462.92 Q2303.83 1462.73 2304.85 1462.73 Q2310.63 1462.73 2314.01 1465.9 Q2317.39 1469.08 2317.39 1474.49 Q2317.39 1480.07 2313.92 1483.17 Q2310.45 1486.25 2304.13 1486.25 Q2301.95 1486.25 2299.68 1485.88 Q2297.44 1485.51 2295.03 1484.77 L2295.03 1480.07 Q2297.11 1481.2 2299.34 1481.76 Q2301.56 1482.32 2304.04 1482.32 Q2308.04 1482.32 2310.38 1480.21 Q2312.72 1478.1 2312.72 1474.49 Q2312.72 1470.88 2310.38 1468.77 Q2308.04 1466.67 2304.04 1466.67 Q2302.16 1466.67 2300.29 1467.08 Q2298.43 1467.5 2296.49 1468.38 L2296.49 1451.02 Z" fill="#000000" fill-rule="evenodd" fill-opacity="1"></path><path clip-path="url(#clip740)" d="M1189.41 1522.27 L1189.41 1532.4 L1201.47 1532.4 L1201.47 1536.95 L1189.41 1536.95 L1189.41 1556.3 Q1189.41 1560.66 1190.59 1561.9 Q1191.8 1563.14 1195.46 1563.14 L1201.47 1563.14 L1201.47 1568.04 L1195.46 1568.04 Q1188.68 1568.04 1186.1 1565.53 Q1183.52 1562.98 1183.52 1556.3 L1183.52 1536.95 L1179.23 1536.95 L1179.23 1532.4 L1183.52 1532.4 L1183.52 1522.27 L1189.41 1522.27 Z" fill="#000000" fill-rule="evenodd" fill-opacity="1"></path><path clip-path="url(#clip740)" d="M1209.18 1532.4 L1215.03 1532.4 L1215.03 1568.04 L1209.18 1568.04 L1209.18 1532.4 M1209.18 1518.52 L1215.03 1518.52 L1215.03 1525.93 L1209.18 1525.93 L1209.18 1518.52 Z" fill="#000000" fill-rule="evenodd" fill-opacity="1"></path><path clip-path="url(#clip740)" d="M1255.04 1539.24 Q1257.24 1535.29 1260.29 1533.41 Q1263.35 1531.54 1267.49 1531.54 Q1273.06 1531.54 1276.08 1535.45 Q1279.1 1539.33 1279.1 1546.53 L1279.1 1568.04 L1273.22 1568.04 L1273.22 1546.72 Q1273.22 1541.59 1271.4 1539.11 Q1269.59 1536.63 1265.86 1536.63 Q1261.31 1536.63 1258.67 1539.65 Q1256.03 1542.68 1256.03 1547.9 L1256.03 1568.04 L1250.14 1568.04 L1250.14 1546.72 Q1250.14 1541.56 1248.33 1539.11 Q1246.51 1536.63 1242.72 1536.63 Q1238.24 1536.63 1235.59 1539.68 Q1232.95 1542.71 1232.95 1547.9 L1232.95 1568.04 L1227.06 1568.04 L1227.06 1532.4 L1232.95 1532.4 L1232.95 1537.93 Q1234.96 1534.66 1237.76 1533.1 Q1240.56 1531.54 1244.41 1531.54 Q1248.29 1531.54 1251 1533.51 Q1253.74 1535.48 1255.04 1539.24 Z" fill="#000000" fill-rule="evenodd" fill-opacity="1"></path><path clip-path="url(#clip740)" d="M1321.28 1548.76 L1321.28 1551.62 L1294.35 1551.62 Q1294.73 1557.67 1297.98 1560.85 Q1301.26 1564 1307.08 1564 Q1310.45 1564 1313.61 1563.17 Q1316.79 1562.35 1319.91 1560.69 L1319.91 1566.23 Q1316.76 1567.57 1313.45 1568.27 Q1310.14 1568.97 1306.73 1568.97 Q1298.2 1568.97 1293.2 1564 Q1288.24 1559.04 1288.24 1550.57 Q1288.24 1541.82 1292.95 1536.69 Q1297.69 1531.54 1305.71 1531.54 Q1312.91 1531.54 1317.07 1536.18 Q1321.28 1540.8 1321.28 1548.76 M1315.42 1547.04 Q1315.36 1542.23 1312.71 1539.37 Q1310.1 1536.5 1305.78 1536.5 Q1300.87 1536.5 1297.91 1539.27 Q1294.99 1542.04 1294.54 1547.07 L1315.42 1547.04 Z" fill="#000000" fill-rule="evenodd" fill-opacity="1"></path><path clip-path="url(#clip740)" d="M1374.33 1533.45 L1374.33 1538.98 Q1371.85 1537.71 1369.18 1537.07 Q1366.5 1536.44 1363.64 1536.44 Q1359.28 1536.44 1357.08 1537.77 Q1354.92 1539.11 1354.92 1541.79 Q1354.92 1543.82 1356.48 1545 Q1358.04 1546.15 1362.75 1547.2 L1364.75 1547.64 Q1370.99 1548.98 1373.6 1551.43 Q1376.24 1553.85 1376.24 1558.21 Q1376.24 1563.17 1372.3 1566.07 Q1368.38 1568.97 1361.51 1568.97 Q1358.64 1568.97 1355.52 1568.39 Q1352.44 1567.85 1349 1566.74 L1349 1560.69 Q1352.25 1562.38 1355.4 1563.24 Q1358.55 1564.07 1361.63 1564.07 Q1365.77 1564.07 1368 1562.66 Q1370.23 1561.23 1370.23 1558.65 Q1370.23 1556.27 1368.61 1554.99 Q1367.01 1553.72 1361.57 1552.54 L1359.53 1552.07 Q1354.09 1550.92 1351.67 1548.56 Q1349.25 1546.18 1349.25 1542.04 Q1349.25 1537.01 1352.82 1534.27 Q1356.38 1531.54 1362.94 1531.54 Q1366.19 1531.54 1369.05 1532.01 Q1371.92 1532.49 1374.33 1533.45 Z" fill="#000000" fill-rule="evenodd" fill-opacity="1"></path><polyline clip-path="url(#clip742)" style="stroke:#000000; stroke-linecap:butt; stroke-linejoin:round; stroke-width:2; stroke-opacity:0.1; fill:none" points="
  202.714,1366.6 2352.76,1366.6 
  "></polyline>
<polyline clip-path="url(#clip742)" style="stroke:#000000; stroke-linecap:butt; stroke-linejoin:round; stroke-width:2; stroke-opacity:0.1; fill:none" points="
  202.714,998.059 2352.76,998.059 
  "></polyline>
<polyline clip-path="url(#clip742)" style="stroke:#000000; stroke-linecap:butt; stroke-linejoin:round; stroke-width:2; stroke-opacity:0.1; fill:none" points="
  202.714,629.519 2352.76,629.519 
  "></polyline>
<polyline clip-path="url(#clip742)" style="stroke:#000000; stroke-linecap:butt; stroke-linejoin:round; stroke-width:2; stroke-opacity:0.1; fill:none" points="
  202.714,260.98 2352.76,260.98 
  "></polyline>
<polyline clip-path="url(#clip740)" style="stroke:#000000; stroke-linecap:butt; stroke-linejoin:round; stroke-width:4; stroke-opacity:1; fill:none" points="
  202.714,1423.18 202.714,47.2441 
  "></polyline>
<polyline clip-path="url(#clip740)" style="stroke:#000000; stroke-linecap:butt; stroke-linejoin:round; stroke-width:4; stroke-opacity:1; fill:none" points="
  202.714,1366.6 221.611,1366.6 
  "></polyline>
<polyline clip-path="url(#clip740)" style="stroke:#000000; stroke-linecap:butt; stroke-linejoin:round; stroke-width:4; stroke-opacity:1; fill:none" points="
  202.714,998.059 221.611,998.059 
  "></polyline>
<polyline clip-path="url(#clip740)" style="stroke:#000000; stroke-linecap:butt; stroke-linejoin:round; stroke-width:4; stroke-opacity:1; fill:none" points="
  202.714,629.519 221.611,629.519 
  "></polyline>
<polyline clip-path="url(#clip740)" style="stroke:#000000; stroke-linecap:butt; stroke-linejoin:round; stroke-width:4; stroke-opacity:1; fill:none" points="
  202.714,260.98 221.611,260.98 
  "></polyline>
<path clip-path="url(#clip740)" d="M115.418 1379.94 L123.056 1379.94 L123.056 1353.58 L114.746 1355.25 L114.746 1350.99 L123.01 1349.32 L127.686 1349.32 L127.686 1379.94 L135.325 1379.94 L135.325 1383.88 L115.418 1383.88 L115.418 1379.94 Z" fill="#000000" fill-rule="evenodd" fill-opacity="1"></path><path clip-path="url(#clip740)" d="M154.769 1352.4 Q151.158 1352.4 149.329 1355.96 Q147.524 1359.5 147.524 1366.63 Q147.524 1373.74 149.329 1377.31 Q151.158 1380.85 154.769 1380.85 Q158.403 1380.85 160.209 1377.31 Q162.038 1373.74 162.038 1366.63 Q162.038 1359.5 160.209 1355.96 Q158.403 1352.4 154.769 1352.4 M154.769 1348.69 Q160.579 1348.69 163.635 1353.3 Q166.714 1357.88 166.714 1366.63 Q166.714 1375.36 163.635 1379.97 Q160.579 1384.55 154.769 1384.55 Q148.959 1384.55 145.88 1379.97 Q142.825 1375.36 142.825 1366.63 Q142.825 1357.88 145.88 1353.3 Q148.959 1348.69 154.769 1348.69 Z" fill="#000000" fill-rule="evenodd" fill-opacity="1"></path><path clip-path="url(#clip740)" d="M117.015 1011.4 L124.654 1011.4 L124.654 985.039 L116.343 986.705 L116.343 982.446 L124.607 980.779 L129.283 980.779 L129.283 1011.4 L136.922 1011.4 L136.922 1015.34 L117.015 1015.34 L117.015 1011.4 Z" fill="#000000" fill-rule="evenodd" fill-opacity="1"></path><path clip-path="url(#clip740)" d="M150.394 1011.4 L166.714 1011.4 L166.714 1015.34 L144.769 1015.34 L144.769 1011.4 Q147.431 1008.65 152.015 1004.02 Q156.621 999.367 157.802 998.025 Q160.047 995.501 160.927 993.765 Q161.829 992.006 161.829 990.316 Q161.829 987.562 159.885 985.826 Q157.964 984.089 154.862 984.089 Q152.663 984.089 150.209 984.853 Q147.778 985.617 145.001 987.168 L145.001 982.446 Q147.825 981.312 150.278 980.733 Q152.732 980.154 154.769 980.154 Q160.14 980.154 163.334 982.839 Q166.528 985.525 166.528 990.015 Q166.528 992.145 165.718 994.066 Q164.931 995.964 162.825 998.557 Q162.246 999.228 159.144 1002.45 Q156.042 1005.64 150.394 1011.4 Z" fill="#000000" fill-rule="evenodd" fill-opacity="1"></path><path clip-path="url(#clip740)" d="M114.931 642.864 L122.57 642.864 L122.57 616.499 L114.26 618.165 L114.26 613.906 L122.524 612.239 L127.2 612.239 L127.2 642.864 L134.839 642.864 L134.839 646.799 L114.931 646.799 L114.931 642.864 Z" fill="#000000" fill-rule="evenodd" fill-opacity="1"></path><path clip-path="url(#clip740)" d="M157.13 616.313 L145.325 634.762 L157.13 634.762 L157.13 616.313 M155.903 612.239 L161.783 612.239 L161.783 634.762 L166.714 634.762 L166.714 638.651 L161.783 638.651 L161.783 646.799 L157.13 646.799 L157.13 638.651 L141.529 638.651 L141.529 634.137 L155.903 612.239 Z" fill="#000000" fill-rule="evenodd" fill-opacity="1"></path><path clip-path="url(#clip740)" d="M115.256 274.324 L122.894 274.324 L122.894 247.959 L114.584 249.625 L114.584 245.366 L122.848 243.7 L127.524 243.7 L127.524 274.324 L135.163 274.324 L135.163 278.26 L115.256 278.26 L115.256 274.324 Z" fill="#000000" fill-rule="evenodd" fill-opacity="1"></path><path clip-path="url(#clip740)" d="M155.186 259.116 Q152.038 259.116 150.186 261.269 Q148.357 263.422 148.357 267.172 Q148.357 270.899 150.186 273.074 Q152.038 275.227 155.186 275.227 Q158.334 275.227 160.163 273.074 Q162.015 270.899 162.015 267.172 Q162.015 263.422 160.163 261.269 Q158.334 259.116 155.186 259.116 M164.468 244.463 L164.468 248.723 Q162.709 247.889 160.903 247.45 Q159.121 247.01 157.362 247.01 Q152.732 247.01 150.278 250.135 Q147.848 253.26 147.501 259.579 Q148.866 257.565 150.927 256.5 Q152.987 255.412 155.464 255.412 Q160.672 255.412 163.681 258.584 Q166.714 261.732 166.714 267.172 Q166.714 272.496 163.565 275.713 Q160.417 278.931 155.186 278.931 Q149.191 278.931 146.019 274.348 Q142.848 269.741 142.848 261.014 Q142.848 252.82 146.737 247.959 Q150.626 243.075 157.177 243.075 Q158.936 243.075 160.718 243.422 Q162.524 243.769 164.468 244.463 Z" fill="#000000" fill-rule="evenodd" fill-opacity="1"></path><path clip-path="url(#clip740)" d="M35.1993 1020.3 Q31.2526 1018.1 29.3747 1015.05 Q27.4968 1011.99 27.4968 1007.86 Q27.4968 1002.29 31.4117 999.261 Q35.2948 996.238 42.4881 996.238 L64.0042 996.238 L64.0042 1002.13 L42.679 1002.13 Q37.5546 1002.13 35.072 1003.94 Q32.5894 1005.75 32.5894 1009.48 Q32.5894 1014.03 35.6131 1016.67 Q38.6368 1019.31 43.8567 1019.31 L64.0042 1019.31 L64.0042 1025.2 L42.679 1025.2 Q37.5228 1025.2 35.072 1027.02 Q32.5894 1028.83 32.5894 1032.62 Q32.5894 1037.11 35.6449 1039.75 Q38.6686 1042.39 43.8567 1042.39 L64.0042 1042.39 L64.0042 1048.28 L28.3562 1048.28 L28.3562 1042.39 L33.8944 1042.39 Q30.616 1040.38 29.0564 1037.58 Q27.4968 1034.78 27.4968 1030.93 Q27.4968 1027.05 29.4702 1024.34 Q31.4436 1021.61 35.1993 1020.3 Z" fill="#000000" fill-rule="evenodd" fill-opacity="1"></path><path clip-path="url(#clip740)" d="M46.0847 968.356 Q46.0847 975.454 47.7079 978.191 Q49.3312 980.928 53.2461 980.928 Q56.3653 980.928 58.2114 978.891 Q60.0256 976.822 60.0256 973.289 Q60.0256 968.42 56.5881 965.491 Q53.1188 962.531 47.3897 962.531 L46.0847 962.531 L46.0847 968.356 M43.6657 956.675 L64.0042 956.675 L64.0042 962.531 L58.5933 962.531 Q61.8398 964.537 63.3994 967.528 Q64.9272 970.52 64.9272 974.849 Q64.9272 980.324 61.8716 983.57 Q58.7843 986.785 53.6281 986.785 Q47.6125 986.785 44.5569 982.774 Q41.5014 978.732 41.5014 970.743 L41.5014 962.531 L40.9285 962.531 Q36.8862 962.531 34.6901 965.205 Q32.4621 967.847 32.4621 972.653 Q32.4621 975.708 33.1941 978.605 Q33.9262 981.501 35.3903 984.175 L29.9795 984.175 Q28.7381 980.96 28.1334 977.936 Q27.4968 974.913 27.4968 972.048 Q27.4968 964.314 31.5072 960.494 Q35.5176 956.675 43.6657 956.675 Z" fill="#000000" fill-rule="evenodd" fill-opacity="1"></path><path clip-path="url(#clip740)" d="M29.4065 921.886 L34.9447 921.886 Q33.6716 924.369 33.035 927.043 Q32.3984 929.716 32.3984 932.581 Q32.3984 936.941 33.7352 939.137 Q35.072 941.302 37.7456 941.302 Q39.7826 941.302 40.9603 939.742 Q42.1061 938.183 43.1565 933.472 L43.6021 931.467 Q44.9389 925.228 47.3897 922.618 Q49.8086 919.977 54.1691 919.977 Q59.1344 919.977 62.0308 923.923 Q64.9272 927.838 64.9272 934.713 Q64.9272 937.578 64.3543 940.697 Q63.8132 943.784 62.6992 947.222 L56.6518 947.222 Q58.3387 943.975 59.198 940.824 Q60.0256 937.673 60.0256 934.586 Q60.0256 930.448 58.6251 928.22 Q57.1929 925.992 54.6147 925.992 Q52.2276 925.992 50.9545 927.615 Q49.6813 929.207 48.5037 934.65 L48.0262 936.687 Q46.8804 942.129 44.5251 944.548 Q42.138 946.967 38.0002 946.967 Q32.9713 946.967 30.2341 943.402 Q27.4968 939.838 27.4968 933.281 Q27.4968 930.034 27.9743 927.17 Q28.4517 924.305 29.4065 921.886 Z" fill="#000000" fill-rule="evenodd" fill-opacity="1"></path><path clip-path="url(#clip740)" d="M29.4065 887.925 L34.9447 887.925 Q33.6716 890.408 33.035 893.081 Q32.3984 895.755 32.3984 898.62 Q32.3984 902.98 33.7352 905.176 Q35.072 907.341 37.7456 907.341 Q39.7826 907.341 40.9603 905.781 Q42.1061 904.221 43.1565 899.511 L43.6021 897.506 Q44.9389 891.267 47.3897 888.657 Q49.8086 886.016 54.1691 886.016 Q59.1344 886.016 62.0308 889.962 Q64.9272 893.877 64.9272 900.752 Q64.9272 903.617 64.3543 906.736 Q63.8132 909.823 62.6992 913.261 L56.6518 913.261 Q58.3387 910.014 59.198 906.863 Q60.0256 903.712 60.0256 900.625 Q60.0256 896.487 58.6251 894.259 Q57.1929 892.031 54.6147 892.031 Q52.2276 892.031 50.9545 893.654 Q49.6813 895.246 48.5037 900.689 L48.0262 902.726 Q46.8804 908.168 44.5251 910.587 Q42.138 913.006 38.0002 913.006 Q32.9713 913.006 30.2341 909.441 Q27.4968 905.877 27.4968 899.32 Q27.4968 896.073 27.9743 893.209 Q28.4517 890.344 29.4065 887.925 Z" fill="#000000" fill-rule="evenodd" fill-opacity="1"></path><path clip-path="url(#clip740)" d="M14.479 837.923 L19.3487 837.923 L19.3487 843.524 Q19.3487 846.675 20.6219 847.917 Q21.895 849.126 25.2052 849.126 L28.3562 849.126 L28.3562 839.482 L32.9077 839.482 L32.9077 849.126 L64.0042 849.126 L64.0042 855.015 L32.9077 855.015 L32.9077 860.616 L28.3562 860.616 L28.3562 855.015 L25.8736 855.015 Q19.9216 855.015 17.2162 852.245 Q14.479 849.476 14.479 843.461 L14.479 837.923 Z" fill="#000000" fill-rule="evenodd" fill-opacity="1"></path><path clip-path="url(#clip740)" d="M14.479 833.021 L14.479 827.165 L64.0042 827.165 L64.0042 833.021 L14.479 833.021 Z" fill="#000000" fill-rule="evenodd" fill-opacity="1"></path><path clip-path="url(#clip740)" d="M32.4621 801.097 Q32.4621 805.808 36.1542 808.545 Q39.8145 811.282 46.212 811.282 Q52.6095 811.282 56.3017 808.577 Q59.9619 805.839 59.9619 801.097 Q59.9619 796.418 56.2698 793.681 Q52.5777 790.944 46.212 790.944 Q39.8781 790.944 36.186 793.681 Q32.4621 796.418 32.4621 801.097 M27.4968 801.097 Q27.4968 793.458 32.4621 789.098 Q37.4273 784.737 46.212 784.737 Q54.9649 784.737 59.9619 789.098 Q64.9272 793.458 64.9272 801.097 Q64.9272 808.768 59.9619 813.128 Q54.9649 817.457 46.212 817.457 Q37.4273 817.457 32.4621 813.128 Q27.4968 808.768 27.4968 801.097 Z" fill="#000000" fill-rule="evenodd" fill-opacity="1"></path><path clip-path="url(#clip740)" d="M28.3562 778.435 L28.3562 772.579 L56.1743 765.258 L28.3562 757.969 L28.3562 751.063 L56.1743 743.742 L28.3562 736.453 L28.3562 730.597 L64.0042 739.923 L64.0042 746.829 L34.7856 754.5 L64.0042 762.203 L64.0042 769.109 L28.3562 778.435 Z" fill="#000000" fill-rule="evenodd" fill-opacity="1"></path><path clip-path="url(#clip740)" d="M33.8307 680.34 Q33.2578 681.326 33.0032 682.504 Q32.7167 683.65 32.7167 685.05 Q32.7167 690.015 35.9632 692.689 Q39.1779 695.331 45.2253 695.331 L64.0042 695.331 L64.0042 701.219 L28.3562 701.219 L28.3562 695.331 L33.8944 695.331 Q30.6479 693.485 29.0883 690.525 Q27.4968 687.565 27.4968 683.331 Q27.4968 682.727 27.5923 681.995 Q27.656 681.263 27.8151 680.371 L33.8307 680.34 Z" fill="#000000" fill-rule="evenodd" fill-opacity="1"></path><path clip-path="url(#clip740)" d="M46.0847 657.996 Q46.0847 665.094 47.7079 667.831 Q49.3312 670.568 53.2461 670.568 Q56.3653 670.568 58.2114 668.531 Q60.0256 666.462 60.0256 662.929 Q60.0256 658.06 56.5881 655.131 Q53.1188 652.171 47.3897 652.171 L46.0847 652.171 L46.0847 657.996 M43.6657 646.315 L64.0042 646.315 L64.0042 652.171 L58.5933 652.171 Q61.8398 654.177 63.3994 657.168 Q64.9272 660.16 64.9272 664.489 Q64.9272 669.963 61.8716 673.21 Q58.7843 676.425 53.6281 676.425 Q47.6125 676.425 44.5569 672.414 Q41.5014 668.372 41.5014 660.383 L41.5014 652.171 L40.9285 652.171 Q36.8862 652.171 34.6901 654.845 Q32.4621 657.487 32.4621 662.293 Q32.4621 665.348 33.1941 668.245 Q33.9262 671.141 35.3903 673.815 L29.9795 673.815 Q28.7381 670.6 28.1334 667.576 Q27.4968 664.553 27.4968 661.688 Q27.4968 653.954 31.5072 650.134 Q35.5176 646.315 43.6657 646.315 Z" fill="#000000" fill-rule="evenodd" fill-opacity="1"></path><path clip-path="url(#clip740)" d="M18.2347 628.459 L28.3562 628.459 L28.3562 616.396 L32.9077 616.396 L32.9077 628.459 L52.2594 628.459 Q56.6199 628.459 57.8613 627.281 Q59.1026 626.072 59.1026 622.412 L59.1026 616.396 L64.0042 616.396 L64.0042 622.412 Q64.0042 629.191 61.4897 631.769 Q58.9434 634.347 52.2594 634.347 L32.9077 634.347 L32.9077 638.644 L28.3562 638.644 L28.3562 634.347 L18.2347 634.347 L18.2347 628.459 Z" fill="#000000" fill-rule="evenodd" fill-opacity="1"></path><path clip-path="url(#clip740)" d="M44.7161 578.202 L47.5806 578.202 L47.5806 605.129 Q53.6281 604.747 56.8109 601.5 Q59.9619 598.222 59.9619 592.397 Q59.9619 589.024 59.1344 585.872 Q58.3069 582.69 56.6518 579.57 L62.1899 579.57 Q63.5267 582.721 64.227 586.032 Q64.9272 589.342 64.9272 592.747 Q64.9272 601.278 59.9619 606.275 Q54.9967 611.24 46.5303 611.24 Q37.7774 611.24 32.6531 606.529 Q27.4968 601.787 27.4968 593.766 Q27.4968 586.573 32.1438 582.403 Q36.7589 578.202 44.7161 578.202 M42.9973 584.058 Q38.1912 584.122 35.3266 586.764 Q32.4621 589.374 32.4621 593.702 Q32.4621 598.604 35.2312 601.564 Q38.0002 604.492 43.0292 604.938 L42.9973 584.058 Z" fill="#000000" fill-rule="evenodd" fill-opacity="1"></path><path clip-path="url(#clip740)" d="M14.479 548.092 L14.479 542.204 L43.7294 542.204 L28.3562 524.73 L28.3562 517.25 L45.0344 536.156 L64.0042 516.454 L64.0042 524.093 L46.5939 542.204 L64.0042 542.204 L64.0042 548.092 L14.479 548.092 Z" fill="#000000" fill-rule="evenodd" fill-opacity="1"></path><path clip-path="url(#clip740)" d="M45.7664 486.663 Q39.4007 486.663 35.8996 489.305 Q32.3984 491.915 32.3984 496.657 Q32.3984 501.368 35.8996 504.01 Q39.4007 506.619 45.7664 506.619 Q52.1003 506.619 55.6014 504.01 Q59.1026 501.368 59.1026 496.657 Q59.1026 491.915 55.6014 489.305 Q52.1003 486.663 45.7664 486.663 M59.58 480.807 Q68.683 480.807 73.1071 484.849 Q77.5631 488.891 77.5631 497.23 Q77.5631 500.317 77.0857 503.055 Q76.6401 505.792 75.6852 508.37 L69.9879 508.37 Q71.3884 505.792 72.0568 503.277 Q72.7252 500.763 72.7252 498.153 Q72.7252 492.392 69.7015 489.528 Q66.7096 486.663 60.6303 486.663 L57.7339 486.663 Q60.885 488.477 62.4446 491.31 Q64.0042 494.143 64.0042 498.089 Q64.0042 504.646 59.0071 508.656 Q54.01 512.667 45.7664 512.667 Q37.491 512.667 32.4939 508.656 Q27.4968 504.646 27.4968 498.089 Q27.4968 494.143 29.0564 491.31 Q30.616 488.477 33.7671 486.663 L28.3562 486.663 L28.3562 480.807 L59.58 480.807 Z" fill="#000000" fill-rule="evenodd" fill-opacity="1"></path><path clip-path="url(#clip740)" d="M16.4842 458.336 L16.4842 452.925 L70.0516 469.476 L70.0516 474.886 L16.4842 458.336 Z" fill="#000000" fill-rule="evenodd" fill-opacity="1"></path><path clip-path="url(#clip740)" d="M29.4065 424.056 L34.9447 424.056 Q33.6716 426.539 33.035 429.212 Q32.3984 431.886 32.3984 434.751 Q32.3984 439.111 33.7352 441.307 Q35.072 443.472 37.7456 443.472 Q39.7826 443.472 40.9603 441.912 Q42.1061 440.352 43.1565 435.642 L43.6021 433.637 Q44.9389 427.398 47.3897 424.788 Q49.8086 422.147 54.1691 422.147 Q59.1344 422.147 62.0308 426.093 Q64.9272 430.008 64.9272 436.883 Q64.9272 439.748 64.3543 442.867 Q63.8132 445.954 62.6992 449.392 L56.6518 449.392 Q58.3387 446.145 59.198 442.994 Q60.0256 439.843 60.0256 436.756 Q60.0256 432.618 58.6251 430.39 Q57.1929 428.162 54.6147 428.162 Q52.2276 428.162 50.9545 429.785 Q49.6813 431.377 48.5037 436.819 L48.0262 438.856 Q46.8804 444.299 44.5251 446.718 Q42.138 449.137 38.0002 449.137 Q32.9713 449.137 30.2341 445.572 Q27.4968 442.008 27.4968 435.451 Q27.4968 432.204 27.9743 429.34 Q28.4517 426.475 29.4065 424.056 Z" fill="#000000" fill-rule="evenodd" fill-opacity="1"></path><polyline clip-path="url(#clip742)" style="stroke:#009af9; stroke-linecap:butt; stroke-linejoin:round; stroke-width:4; stroke-opacity:1; fill:none" points="
  263.564,476.106 264.507,336.79 264.926,275.999 265.595,188.927 266.159,132.368 266.815,93.1557 267.464,86.1857 268.162,111.988 268.869,163.378 269.59,225.743 
  270.316,280.594 271.056,313.599 271.811,316.55 272.581,290.19 273.35,245.664 274.116,199.715 274.886,168.683 275.666,164.578 276.457,190.804 277.248,238.614 
  278.029,290.588 278.806,329.978 279.588,345.649 280.383,334.175 281.177,301.899 281.959,263.056 282.736,232.536 283.518,222.022 284.31,236.678 285.106,272.087 
  285.891,314.932 286.668,350.674 287.449,368.687 288.241,364.379 289.037,340.997 289.823,309.384 290.603,282.172 291.386,269.821 292.181,277.9 292.981,304.322 
  293.771,339.017 294.555,369.874 295.343,387.278 296.144,386.347 296.948,368.898 297.742,343.494 298.533,320.672 299.33,309.557 300.139,315.304 300.949,336.324 
  301.75,364.433 302.55,389.671 303.357,403.759 304.176,402.5 304.992,387.926 305.801,367.385 306.612,349.713 307.433,342.536 308.261,349.533 309.084,368.109 
  309.904,391.061 310.729,410.075 311.564,418.563 312.401,414.29 313.233,400.588 314.066,384.223 314.908,372.699 315.755,371.582 316.601,381.765 317.446,399.186 
  318.296,417.069 319.153,428.646 320.012,430.02 320.87,421.99 321.731,409.235 322.598,398.203 323.47,394.514 324.342,400.285 325.215,413.282 326.095,428.192 
  326.979,438.996 327.865,441.791 328.752,436.564 329.644,426.873 330.541,418.167 331.44,415.289 332.341,420.093 333.244,430.716 334.152,442.611 335.061,450.772 
  335.968,452.281 336.877,447.536 337.787,439.809 338.69,433.625 339.588,432.364 340.487,436.889 341.389,445.351 342.283,454.046 343.17,459.512 344.053,460.059 
  344.933,456.268 345.813,450.564 346.691,446.064 347.556,445.121 348.409,448.227 349.26,454.179 350.114,460.721 350.963,465.398 351.805,466.754 352.643,464.817 
  353.478,460.895 354.313,456.967 355.149,454.887 355.981,455.638 356.804,458.895 357.621,463.353 358.441,467.317 359.262,469.272 360.08,468.5 360.893,465.33 
  361.704,460.876 362.516,456.56 363.33,453.581 364.146,452.5 364.956,453.017 365.76,454.171 366.564,454.821 367.373,454.076 368.183,451.651 368.989,448.016 
  369.793,444.161 370.597,441.216 371.404,440.049 372.215,440.962 373.025,443.545 373.83,446.836 374.634,449.748 375.441,451.426 376.252,451.499 377.063,450.211 
  377.872,448.287 378.681,446.604 379.492,445.868 380.307,446.37 381.125,447.902 381.94,449.855 382.755,451.513 383.571,452.346 384.392,452.182 385.215,451.265 
  386.038,450.141 386.86,449.406 387.685,449.455 388.514,450.348 389.347,451.786 390.18,453.246 391.013,454.223 391.848,454.448 392.686,453.978 393.529,453.167 
  394.373,452.515 395.218,452.436 396.065,453.086 396.916,454.309 397.772,455.705 398.63,456.808 399.488,457.309 400.349,457.185 401.214,456.7 402.084,456.287 
  402.956,456.353 403.829,457.086 404.706,458.38 405.587,459.881 406.473,461.156 407.362,461.884 408.253,462.014 409.147,461.778 410.046,461.571 410.95,461.77 
  411.856,462.541 412.766,463.771 413.679,465.123 414.597,466.212 415.521,466.786 416.447,466.863 417.376,466.715 418.31,466.724 419.25,467.186 420.194,468.157 
  421.142,469.422 422.093,470.614 423.049,471.411 424.012,471.705 424.979,471.666 425.948,471.649 426.922,471.997 427.903,472.85 428.89,474.065 429.88,475.289 
  430.874,476.168 431.874,476.548 432.881,476.566 433.892,476.573 434.907,476.93 435.928,477.791 436.956,479.012 437.989,480.222 439.026,481.057 440.068,481.385 
  441.118,481.387 442.175,481.452 443.234,481.932 444.299,482.914 445.372,484.166 446.453,485.273 447.537,485.913 448.626,486.078 449.724,486.075 450.83,486.331 
  451.94,487.097 453.055,488.268 454.18,489.462 455.313,490.268 456.45,490.551 457.594,490.554 458.748,490.719 459.91,491.366 461.076,492.442 462.25,493.561 
  463.436,494.288 464.627,494.472 465.824,494.381 467.032,494.486 468.25,495.096 469.473,496.098 470.704,497.062 471.947,497.599 473.198,497.695 474.454,497.741 
  475.722,498.19 477.001,499.162 478.284,500.314 479.577,501.154 480.884,501.473 482.196,501.541 483.515,501.856 484.849,502.676 486.191,503.763 487.537,504.622 
  488.899,505.002 490.27,505.136 491.645,505.512 493.034,506.365 494.435,507.428 495.838,508.209 497.256,508.538 498.686,508.738 500.118,509.274 501.565,510.241 
  503.023,511.249 504.484,511.873 505.959,512.156 507.446,512.54 508.935,513.346 510.44,514.395 511.953,515.219 513.469,515.645 515.003,516.004 516.541,516.697 
  518.085,517.693 519.647,518.585 521.209,519.109 522.782,519.503 524.37,520.17 525.955,521.127 527.557,522.018 529.167,522.582 530.777,523.026 532.407,523.72 
  534.036,524.665 535.674,525.518 537.329,526.084 538.978,526.584 540.646,527.337 542.319,528.272 543.993,529.06 545.689,529.613 547.377,530.189 549.083,531.01 
  550.798,531.914 552.511,532.621 554.247,533.179 555.977,533.853 557.724,534.725 559.48,535.556 561.235,536.186 563.014,536.793 564.785,537.567 566.579,538.431 
  568.376,539.151 570.179,539.753 572.003,540.458 573.82,541.295 575.665,542.086 577.504,542.733 579.364,543.409 581.232,544.224 583.105,545.04 585.002,545.735 
  586.892,546.401 588.813,547.191 590.729,548.013 592.669,548.738 594.614,549.42 596.573,550.197 598.55,551.024 600.529,551.763 602.537,552.466 604.539,553.246 
  606.576,554.077 608.606,554.824 610.671,555.55 612.73,556.347 614.823,557.176 616.914,557.928 619.035,558.68 621.159,559.498 623.31,560.319 625.467,561.076 
  627.649,561.859 629.84,562.696 632.055,563.505 634.279,564.274 636.53,565.095 638.786,565.935 641.075,566.734 643.364,567.531 645.691,568.385 648.013,569.21 
  650.379,570.015 652.737,570.853 655.139,571.711 657.537,572.523 659.971,573.361 662.413,574.226 664.877,575.059 667.367,575.895 669.859,576.764 672.393,577.618 
  674.922,578.451 677.488,579.329 680.065,580.192 682.656,581.032 685.281,581.915 687.903,582.783 690.561,583.633 693.23,584.516 695.908,585.39 698.622,586.246 
  701.334,587.13 704.07,588.008 706.83,588.866 709.587,589.753 712.374,590.631 715.176,591.49 717.977,592.38 720.809,593.254 723.648,594.113 726.49,595.005 
  729.361,595.869 732.235,596.732 735.111,597.62 738.014,598.473 740.921,599.342 743.826,600.22 746.756,601.061 749.691,601.936 752.621,602.797 755.572,603.632 
  758.532,604.51 761.483,605.347 764.45,606.183 767.43,607.054 770.4,607.868 773.379,608.712 776.373,609.562 779.36,610.362 782.348,611.212 785.352,612.029 
  788.352,612.831 791.347,613.675 794.356,614.458 797.368,615.275 800.368,616.092 803.377,616.855 806.397,617.683 809.403,618.46 812.408,619.225 815.427,620.046 
  818.44,620.784 821.442,621.567 824.453,622.353 827.466,623.073 830.466,623.869 833.469,624.605 836.475,625.333 839.471,626.119 842.465,626.811 845.464,627.56 
  848.453,628.309 851.436,628.981 854.425,629.745 857.409,630.442 860.38,631.123 863.356,631.876 866.333,632.529 869.298,633.234 872.26,633.95 875.228,634.583 
  878.186,635.304 881.14,635.97 884.098,636.608 887.051,637.324 889.998,637.948 892.95,638.606 895.899,639.295 898.842,639.895 901.788,640.569 904.737,641.219 
  907.68,641.818 910.625,642.492 913.573,643.106 916.52,643.715 919.47,644.377 922.423,644.966 925.373,645.586 928.33,646.227 931.294,646.801 934.254,647.431 
  937.216,648.045 940.191,648.613 943.168,649.251 946.139,649.834 949.119,650.404 952.111,651.043 955.098,651.593 958.083,652.181 961.076,652.8 964.074,653.322 
  967.069,653.942 970.058,654.513 973.047,655.033 976.039,655.667 979.026,656.179 981.998,656.73 984.965,657.337 987.935,657.808 990.891,658.399 993.827,658.943 
  996.76,659.412 999.693,660.013 1002.6,660.499 1005.5,660.987 1008.39,661.566 1011.28,662.017 1014.15,662.523 1017,663.067 1019.86,663.502 1022.71,664.012 
  1025.55,664.533 1028.37,664.95 1031.2,665.458 1034.02,665.965 1036.82,666.358 1039.61,666.872 1042.41,667.358 1045.2,667.727 1047.96,668.26 1050.72,668.707 
  1053.48,669.06 1056.23,669.614 1058.95,670.011 1061.66,670.361 1064.37,670.924 1067.06,671.274 1069.74,671.632 1072.41,672.189 1075.08,672.502 1077.71,672.87 
  1080.35,673.411 1082.99,673.701 1085.61,674.076 1088.22,674.596 1090.84,674.876 1093.44,675.252 1096.04,675.752 1098.64,676.03 1101.24,676.402 1103.83,676.882 
  1106.42,677.166 1109.02,677.532 1111.61,677.993 1114.21,678.285 1116.81,678.645 1119.41,679.089 1122.02,679.389 1124.64,679.745 1127.25,680.172 1129.87,680.481 
  1132.5,680.832 1135.13,681.244 1137.77,681.56 1140.41,681.906 1143.06,682.307 1145.71,682.627 1148.37,682.97 1151.03,683.361 1153.7,683.681 1156.37,684.021 
  1159.05,684.404 1161.73,684.721 1164.41,685.06 1167.1,685.434 1169.79,685.748 1172.48,686.086 1175.18,686.45 1177.88,686.76 1180.58,687.098 1183.28,687.45 
  1185.99,687.759 1188.69,688.097 1191.4,688.435 1194.12,688.746 1196.83,689.079 1199.55,689.406 1202.27,689.721 1205,690.045 1207.72,690.365 1210.45,690.683 
  1213.19,690.995 1215.92,691.314 1218.66,691.63 1221.4,691.93 1224.15,692.253 1226.89,692.562 1229.64,692.852 1232.39,693.18 1235.15,693.475 1237.89,693.763 
  1240.64,694.092 1243.4,694.371 1246.15,694.662 1248.89,694.985 1251.65,695.249 1254.4,695.548 1257.13,695.858 1259.87,696.112 1262.62,696.416 1265.35,696.712 
  1268.07,696.961 1270.81,697.264 1273.53,697.546 1276.25,697.794 1278.96,698.092 1281.68,698.363 1284.39,698.611 1287.09,698.901 1289.79,699.164 1292.5,699.409 
  1295.19,699.693 1297.88,699.951 1300.57,700.19 1303.26,700.47 1305.94,700.722 1308.63,700.955 1311.32,701.233 1314,701.478 1316.67,701.706 1319.36,701.981 
  1322.03,702.219 1324.7,702.443 1327.38,702.716 1330.05,702.946 1332.72,703.168 1335.39,703.436 1338.06,703.659 1340.73,703.879 1343.39,704.142 1346.06,704.359 
  1348.72,704.578 1351.38,704.835 1354.04,705.048 1356.71,705.263 1359.37,705.516 1362.02,705.725 1364.68,705.935 1367.35,706.185 1370,706.39 1372.66,706.594 
  1375.32,706.844 1377.97,707.042 1380.62,707.242 1383.28,707.493 1385.94,707.68 1388.59,707.88 1391.24,708.13 1393.9,708.305 1396.55,708.51 1399.2,708.755 
  1401.85,708.917 1404.5,709.131 1407.15,709.367 1409.79,709.519 1412.45,709.744 1415.09,709.964 1417.73,710.111 1420.37,710.346 1423.02,710.546 1425.65,710.696 
  1428.29,710.936 1430.93,711.114 1433.56,711.274 1436.19,711.512 1438.82,711.671 1441.45,711.846 1444.07,712.074 1446.7,712.217 1449.33,712.409 1451.94,712.622 
  1454.56,712.756 1457.19,712.963 1459.8,713.155 1462.41,713.289 1465.03,713.506 1467.65,713.676 1470.26,713.816 1472.87,714.037 1475.48,714.186 1478.09,714.337 
  1480.7,714.555 1483.31,714.687 1485.92,714.853 1488.52,715.06 1491.13,715.181 1493.74,715.361 1496.34,715.552 1498.95,715.669 1501.55,715.86 1504.15,716.033 
  1506.76,716.152 1509.36,716.35 1511.96,716.503 1514.57,716.632 1517.17,716.828 1519.77,716.964 1522.38,717.106 1524.98,717.295 1527.58,717.418 1530.18,717.575 
  1532.79,717.75 1535.38,717.867 1537.99,718.036 1540.59,718.195 1543.19,718.312 1545.79,718.489 1548.4,718.629 1551,718.752 1553.6,718.933 1556.2,719.054 
  1558.8,719.189 1561.4,719.366 1564,719.473 1566.6,719.62 1569.2,719.788 1571.8,719.886 1574.4,720.045 1576.99,720.199 1579.59,720.294 1582.19,720.463 
  1584.78,720.601 1587.38,720.699 1589.97,720.872 1592.57,720.993 1595.16,721.1 1597.76,721.272 1600.35,721.379 1602.95,721.497 1605.54,721.662 1608.14,721.759 
  1610.73,721.889 1613.33,722.043 1615.92,722.135 1618.52,722.275 1621.12,722.414 1623.71,722.507 1626.31,722.654 1628.91,722.777 1631.51,722.877 1634.1,723.025 
  1636.7,723.134 1639.31,723.243 1641.91,723.388 1644.51,723.484 1647.11,723.605 1649.71,723.742 1652.32,723.831 1654.92,723.963 1657.53,724.087 1660.13,724.175 
  1662.74,724.315 1665.34,724.424 1667.95,724.516 1670.55,724.659 1673.16,724.753 1675.77,724.854 1678.38,724.995 1680.99,725.078 1683.59,725.19 1686.2,725.323 
  1688.81,725.398 1691.42,725.521 1694.03,725.642 1696.64,725.715 1699.25,725.847 1701.86,725.952 1704.46,726.03 1707.07,726.166 1709.68,726.256 1712.29,726.342 
  1714.9,726.478 1717.51,726.555 1720.12,726.652 1722.73,726.781 1725.34,726.849 1727.96,726.959 1730.57,727.076 1733.18,727.141 1735.79,727.26 1738.4,727.363 
  1741.01,727.431 1743.63,727.556 1746.24,727.644 1748.85,727.719 1751.47,727.844 1754.08,727.92 1756.7,728.005 1759.31,728.125 1761.93,728.192 1764.54,728.288 
  1767.16,728.398 1769.77,728.461 1772.39,728.566 1775.01,728.664 1777.63,728.729 1780.25,728.839 1782.87,728.924 1785.48,728.995 1788.1,729.106 1790.72,729.18 
  1793.34,729.259 1795.97,729.365 1798.59,729.432 1801.21,729.52 1803.83,729.617 1806.45,729.681 1809.08,729.777 1811.7,729.863 1814.33,729.929 1816.95,730.028 
  1819.58,730.104 1822.2,730.176 1824.83,730.274 1827.46,730.341 1830.09,730.42 1832.71,730.513 1835.34,730.575 1837.97,730.661 1840.6,730.745 1843.23,730.807 
  1845.86,730.898 1848.49,730.972 1851.12,731.037 1853.75,731.129 1856.38,731.195 1859.02,731.266 1861.65,731.354 1864.28,731.414 1866.91,731.492 1869.55,731.573 
  1872.18,731.632 1874.82,731.714 1877.45,731.787 1880.09,731.848 1882.72,731.931 1885.36,731.996 1887.99,732.063 1890.63,732.143 1893.27,732.202 1895.9,732.275 
  1898.54,732.349 1901.18,732.407 1903.82,732.483 1906.46,732.55 1909.1,732.61 1911.73,732.687 1914.37,732.746 1917.01,732.811 1919.65,732.886 1922.29,732.94 
  1924.93,733.011 1927.57,733.079 1930.21,733.132 1932.85,733.207 1935.49,733.266 1938.13,733.322 1940.77,733.398 1943.41,733.45 1946.05,733.512 1948.69,733.584 
  1951.33,733.631 1953.97,733.7 1956.61,733.765 1959.25,733.811 1961.89,733.884 1964.53,733.94 1967.17,733.989 1969.81,734.064 1972.45,734.111 1975.09,734.167 
  1977.73,734.239 1980.36,734.28 1983,734.344 1985.64,734.408 1988.27,734.447 1990.91,734.518 1993.55,734.572 1996.18,734.614 1998.82,734.687 2001.45,734.732 
  2004.09,734.781 2006.72,734.852 2009.36,734.889 2011.99,734.946 2014.62,735.01 2017.26,735.044 2019.89,735.11 2022.52,735.164 2025.15,735.2 2027.78,735.27 
  2030.41,735.313 2033.04,735.355 2035.67,735.425 2038.3,735.459 2040.93,735.51 2043.56,735.574 2046.19,735.603 2048.82,735.664 2051.44,735.718 2054.07,735.748 
  2056.7,735.815 2059.32,735.857 2061.95,735.892 2064.57,735.961 2067.2,735.993 2069.82,736.037 2072.44,736.102 2075.06,736.127 2077.69,736.181 2080.31,736.238 
  2082.93,736.26 2085.55,736.323 2088.17,736.369 2090.79,736.394 2093.41,736.462 2096.03,736.495 2098.65,736.528 2101.26,736.596 2103.88,736.619 2106.5,736.663 
  2109.11,736.725 2111.73,736.741 2114.34,736.796 2116.96,736.849 2119.57,736.864 2122.18,736.928 2124.8,736.968 2127.41,736.988 2130.02,737.056 2132.63,737.083 
  2135.25,737.112 2137.86,737.179 2140.47,737.196 2143.08,737.236 2145.69,737.297 2148.3,737.308 2150.91,737.36 2153.51,737.411 2156.12,737.42 2158.73,737.482 
  2161.34,737.519 2163.94,737.534 2166.55,737.601 2169.16,737.624 2171.77,737.648 2174.37,737.715 2176.98,737.727 2179.58,737.764 2182.19,737.824 2184.79,737.83 
  2187.4,737.878 2190,737.928 2192.61,737.932 2195.21,737.991 2197.81,738.028 2200.42,738.036 2203.02,738.101 2205.63,738.124 2208.23,738.142 2210.83,738.207 
  2213.43,738.218 2216.04,738.248 2218.64,738.308 2221.24,738.311 2223.84,738.354 2226.44,738.404 2229.05,738.405 2231.65,738.458 2234.25,738.496 2236.85,738.5 
  2239.45,738.56 2242.06,738.585 2244.66,738.596 2247.26,738.659 2249.86,738.671 2252.46,738.694 2255.06,738.753 2257.66,738.756 2260.27,738.791 2262.87,738.842 
  2265.47,738.842 2268.07,738.888 2270.67,738.928 2273.28,738.928 2275.88,738.983 2278.48,739.009 2281.08,739.016 2283.68,739.074 2286.29,739.089 2288.89,739.106 
  2291.49,739.162 2291.91,739.166 
  "></polyline>
<polyline clip-path="url(#clip742)" style="stroke:#e26f46; stroke-linecap:butt; stroke-linejoin:round; stroke-width:4; stroke-opacity:1; fill:none" points="
  263.564,793.475 264.507,1024.25 264.926,1084.63 265.595,1144.13 266.159,1170.36 266.815,1187.26 267.464,1201.12 268.162,1221.4 268.869,1250.55 269.59,1286.74 
  270.316,1323.81 271.056,1355.49 271.811,1376.51 272.581,1384.24 273.35,1380.04 274.116,1368.73 274.886,1355.92 275.666,1346.17 276.457,1341.7 277.248,1341.63 
  278.029,1342.74 278.806,1341.58 279.588,1335.91 280.383,1325.45 281.177,1312.26 281.959,1299.58 282.736,1289.86 283.518,1284.1 284.31,1281.72 285.106,1280.79 
  285.891,1279.02 286.668,1274.91 287.449,1268.17 288.241,1259.69 289.037,1251.23 289.823,1244.51 290.603,1240.15 291.386,1237.75 292.181,1236.19 292.981,1234.14 
  293.771,1230.67 294.555,1225.62 295.343,1219.53 296.144,1213.34 296.948,1208.07 297.742,1204.28 298.533,1201.69 299.33,1199.59 300.139,1197.14 300.949,1193.78 
  301.75,1189.48 302.55,1184.61 303.357,1179.78 304.176,1175.59 304.992,1172.38 305.801,1169.98 306.612,1167.91 307.433,1165.62 308.261,1162.77 309.084,1159.4 
  309.904,1155.8 310.729,1152.36 311.564,1149.38 312.401,1147 313.233,1145.04 314.066,1143.14 314.908,1140.99 315.755,1138.44 316.601,1135.63 317.446,1132.82 
  318.296,1130.26 319.153,1128.11 320.012,1126.33 320.87,1124.71 321.731,1123 322.598,1121.03 323.47,1118.8 324.342,1116.48 325.215,1114.28 326.095,1112.34 
  326.979,1110.69 327.865,1109.22 328.752,1107.74 329.644,1106.12 330.541,1104.3 331.44,1102.38 332.341,1100.5 333.244,1098.76 334.152,1097.18 335.061,1095.71 
  335.968,1094.24 336.877,1092.68 337.787,1091.01 338.69,1089.3 339.588,1087.63 340.487,1086.05 341.389,1084.56 342.283,1083.15 343.17,1081.76 344.053,1080.36 
  344.933,1078.94 345.813,1077.55 346.691,1076.22 347.556,1074.99 348.409,1073.85 349.26,1072.74 350.114,1071.62 350.963,1070.47 351.805,1069.29 352.643,1068.12 
  353.478,1067.01 354.313,1065.99 355.149,1065.09 355.981,1064.32 356.804,1063.65 357.621,1063.05 358.441,1062.49 359.262,1061.94 360.08,1061.39 360.893,1060.81 
  361.704,1060.16 362.516,1059.41 363.33,1058.53 364.146,1057.54 364.956,1056.57 365.76,1055.79 366.564,1055.49 367.373,1056.03 368.183,1057.78 368.989,1061.08 
  369.793,1066.12 370.597,1072.92 371.404,1081.29 372.215,1090.76 373.025,1100.56 373.83,1109.75 374.634,1117.42 375.441,1122.76 376.252,1125.09 377.063,1124.12 
  377.872,1120.1 378.681,1113.75 379.492,1106.19 380.307,1098.81 381.125,1092.99 381.94,1089.79 382.755,1089.67 383.571,1092.37 384.392,1097.05 385.215,1102.35 
  386.038,1106.74 386.86,1108.93 387.685,1108.14 388.514,1104.37 389.347,1098.37 390.18,1091.61 391.013,1085.76 391.848,1082.23 392.686,1081.77 393.529,1084.3 
  394.373,1088.77 395.218,1093.57 396.065,1097 396.916,1097.75 397.772,1095.31 398.63,1090.22 399.488,1083.91 400.349,1078.23 401.214,1074.83 402.084,1074.6 
  402.956,1077.34 403.829,1081.78 404.706,1086.06 405.587,1088.35 406.473,1087.51 407.362,1083.55 408.253,1077.67 409.147,1071.82 410.046,1067.93 410.95,1067.22 
  411.856,1069.64 412.766,1073.86 413.679,1077.87 414.597,1079.68 415.521,1078.22 416.447,1073.77 417.376,1067.89 418.31,1062.78 419.25,1060.3 420.194,1061.18 
  421.142,1064.63 422.093,1068.7 423.049,1071.19 424.012,1070.59 424.979,1066.81 425.948,1061.3 426.922,1056.3 427.903,1053.82 428.89,1054.65 429.88,1057.92 
  430.874,1061.56 431.874,1063.33 432.881,1061.95 433.892,1057.74 434.907,1052.51 435.928,1048.6 436.956,1047.6 437.989,1049.56 439.026,1052.87 440.068,1055.25 
  441.118,1054.93 442.175,1051.67 443.234,1046.92 444.299,1042.95 445.372,1041.52 446.453,1042.91 447.537,1045.68 448.626,1047.64 449.724,1047.12 450.83,1043.97 
  451.94,1039.71 453.055,1036.48 454.18,1035.73 455.313,1037.29 456.45,1039.5 457.594,1040.33 458.748,1038.73 459.91,1035.28 461.076,1031.81 462.25,1030.08 
  463.436,1030.61 464.627,1032.33 465.824,1033.35 467.032,1032.39 468.25,1029.62 469.473,1026.54 470.704,1024.84 471.947,1025.14 473.198,1026.57 474.454,1027.51 
  475.722,1026.82 477.001,1024.74 478.284,1022.61 479.577,1021.71 480.884,1022.26 482.196,1023.19 483.515,1023.11 484.849,1021.48 486.191,1019.03 487.537,1017.18 
  488.899,1016.76 490.27,1017.35 491.645,1017.68 493.034,1016.76 494.435,1014.76 495.838,1012.8 497.256,1011.89 498.686,1012.02 500.118,1012.19 501.565,1011.45 
  503.023,1009.75 504.484,1008.02 505.959,1007.11 507.446,1007.02 508.935,1006.89 510.44,1005.96 511.953,1004.36 513.469,1002.92 515.003,1002.23 516.541,1002.03 
  518.085,1001.53 519.647,1000.31 521.209,998.822 522.782,997.763 524.37,997.298 525.955,996.88 527.557,995.933 529.167,994.558 530.777,993.369 532.407,992.697 
  534.036,992.222 535.674,991.391 537.329,990.127 538.978,988.925 540.646,988.145 542.319,987.593 543.993,986.781 545.689,985.581 547.377,984.405 549.083,983.589 
  550.798,982.975 552.511,982.135 554.247,980.957 555.977,979.823 557.724,979.015 559.48,978.355 561.235,977.457 563.014,976.278 564.785,975.203 566.579,974.43 
  568.376,973.719 570.179,972.738 572.003,971.563 573.82,970.577 575.665,969.847 577.504,969.062 579.364,967.995 581.232,966.881 583.105,966.026 585.002,965.307 
  586.892,964.393 588.813,963.253 590.729,962.243 592.669,961.47 594.614,960.649 596.573,959.575 598.55,958.48 600.529,957.628 602.537,956.835 604.539,955.83 
  606.576,954.705 608.606,953.785 610.671,952.985 612.73,952.018 614.823,950.893 616.914,949.928 619.035,949.109 621.159,948.148 623.31,947.027 625.467,946.048 
  627.649,945.205 629.84,944.224 632.055,943.107 634.279,942.137 636.53,941.267 638.786,940.246 641.075,939.138 643.364,938.196 645.691,937.282 648.013,936.214 
  650.379,935.136 652.737,934.219 655.139,933.237 657.537,932.136 659.971,931.119 662.413,930.187 664.877,929.129 667.367,928.041 669.859,927.084 672.393,926.078 
  674.922,924.98 677.488,923.962 680.065,922.989 682.656,921.907 685.281,920.845 687.903,919.876 690.561,918.816 693.23,917.734 695.908,916.75 698.622,915.71 
  701.334,914.624 704.07,913.623 706.83,912.598 709.587,911.515 712.374,910.503 715.176,909.489 717.977,908.412 720.809,907.396 723.648,906.389 726.49,905.32 
  729.361,904.308 732.235,903.306 735.111,902.246 738.014,901.243 740.921,900.246 743.826,899.198 746.756,898.208 749.691,897.215 752.621,896.18 755.572,895.207 
  758.532,894.218 761.483,893.199 764.45,892.244 767.43,891.26 770.4,890.259 773.379,889.322 776.373,888.344 779.36,887.364 782.348,886.445 785.352,885.474 
  788.352,884.517 791.347,883.613 794.356,882.652 797.368,881.721 800.368,880.829 803.377,879.882 806.397,878.978 809.403,878.094 812.408,877.165 815.427,876.289 
  818.44,875.412 821.442,874.504 824.453,873.654 827.466,872.784 830.466,871.899 833.469,871.073 836.475,870.213 839.471,869.354 842.465,868.548 845.464,867.699 
  848.453,866.866 851.436,866.078 854.425,865.243 857.409,864.435 860.38,863.663 863.356,862.844 866.333,862.061 869.298,861.301 872.26,860.501 875.228,859.741 
  878.186,858.992 881.14,858.21 884.098,857.472 887.051,856.734 889.998,855.97 892.95,855.251 895.899,854.525 898.842,853.778 901.788,853.077 904.737,852.361 
  907.68,851.631 910.625,850.945 913.573,850.238 916.52,849.525 919.47,848.852 922.423,848.155 925.373,847.457 928.33,846.797 931.294,846.106 934.254,845.425 
  937.216,844.775 940.191,844.092 943.168,843.425 946.139,842.784 949.119,842.111 952.111,841.458 955.098,840.824 958.083,840.161 961.076,839.526 964.074,838.898 
  967.069,838.246 970.058,837.628 973.047,837.011 976.039,836.372 979.026,835.771 981.998,835.164 984.965,834.546 987.935,833.962 990.891,833.366 993.827,832.768 
  996.76,832.204 999.693,831.621 1002.6,831.043 1005.5,830.496 1008.39,829.931 1011.28,829.369 1014.15,828.838 1017,828.291 1019.86,827.745 1022.71,827.226 
  1025.55,826.694 1028.37,826.166 1031.2,825.66 1034.02,825.14 1036.82,824.626 1039.61,824.134 1042.41,823.631 1045.2,823.127 1047.96,822.649 1050.72,822.164 
  1053.48,821.674 1056.23,821.206 1058.95,820.739 1061.66,820.265 1064.37,819.808 1067.06,819.357 1069.74,818.899 1072.41,818.454 1075.08,818.017 1077.71,817.574 
  1080.35,817.139 1082.99,816.716 1085.61,816.287 1088.22,815.861 1090.84,815.447 1093.44,815.032 1096.04,814.614 1098.64,814.207 1101.24,813.803 1103.83,813.394 
  1106.42,812.992 1109.02,812.597 1111.61,812.196 1114.21,811.797 1116.81,811.408 1119.41,811.015 1122.02,810.621 1124.64,810.235 1127.25,809.85 1129.87,809.46 
  1132.5,809.077 1135.13,808.697 1137.77,808.313 1140.41,807.932 1143.06,807.557 1145.71,807.179 1148.37,806.801 1151.03,806.431 1153.7,806.058 1156.37,805.685 
  1159.05,805.318 1161.73,804.952 1164.41,804.583 1167.1,804.221 1169.79,803.86 1172.48,803.498 1175.18,803.14 1177.88,802.785 1180.58,802.428 1183.28,802.075 
  1185.99,801.725 1188.69,801.375 1191.4,801.026 1194.12,800.682 1196.83,800.337 1199.55,799.994 1202.27,799.655 1205,799.316 1207.72,798.977 1210.45,798.643 
  1213.19,798.309 1215.92,797.975 1218.66,797.646 1221.4,797.318 1224.15,796.989 1226.89,796.664 1229.64,796.342 1232.39,796.018 1235.15,795.698 1237.89,795.382 
  1240.64,795.064 1243.4,794.749 1246.15,794.438 1248.89,794.128 1251.65,793.819 1254.4,793.514 1257.13,793.21 1259.87,792.908 1262.62,792.608 1265.35,792.311 
  1268.07,792.016 1270.81,791.724 1273.53,791.432 1276.25,791.143 1278.96,790.858 1281.68,790.573 1284.39,790.29 1287.09,790.011 1289.79,789.733 1292.5,789.455 
  1295.19,789.182 1297.88,788.91 1300.57,788.639 1303.26,788.37 1305.94,788.105 1308.63,787.839 1311.32,787.575 1314,787.314 1316.67,787.055 1319.36,786.796 
  1322.03,786.54 1324.7,786.286 1327.38,786.032 1330.05,785.781 1332.72,785.531 1335.39,785.283 1338.06,785.036 1340.73,784.791 1343.39,784.548 1346.06,784.306 
  1348.72,784.065 1351.38,783.827 1354.04,783.589 1356.71,783.353 1359.37,783.119 1362.02,782.886 1364.68,782.655 1367.35,782.424 1370,782.196 1372.66,781.969 
  1375.32,781.743 1377.97,781.518 1380.62,781.295 1383.28,781.074 1385.94,780.853 1388.59,780.634 1391.24,780.416 1393.9,780.2 1396.55,779.984 1399.2,779.771 
  1401.85,779.559 1404.5,779.347 1407.15,779.138 1409.79,778.93 1412.45,778.722 1415.09,778.517 1417.73,778.313 1420.37,778.109 1423.02,777.907 1425.65,777.708 
  1428.29,777.508 1430.93,777.31 1433.56,777.114 1436.19,776.919 1438.82,776.724 1441.45,776.532 1444.07,776.341 1446.7,776.15 1449.33,775.961 1451.94,775.774 
  1454.56,775.587 1457.19,775.401 1459.8,775.217 1462.41,775.035 1465.03,774.852 1467.65,774.672 1470.26,774.492 1472.87,774.314 1475.48,774.136 1478.09,773.96 
  1480.7,773.785 1483.31,773.611 1485.92,773.438 1488.52,773.266 1491.13,773.095 1493.74,772.925 1496.34,772.756 1498.95,772.588 1501.55,772.421 1504.15,772.255 
  1506.76,772.09 1509.36,771.926 1511.96,771.763 1514.57,771.601 1517.17,771.44 1519.77,771.28 1522.38,771.121 1524.98,770.963 1527.58,770.805 1530.18,770.649 
  1532.79,770.493 1535.38,770.339 1537.99,770.185 1540.59,770.032 1543.19,769.881 1545.79,769.73 1548.4,769.579 1551,769.43 1553.6,769.282 1556.2,769.134 
  1558.8,768.988 1561.4,768.842 1564,768.697 1566.6,768.553 1569.2,768.41 1571.8,768.268 1574.4,768.127 1576.99,767.986 1579.59,767.846 1582.19,767.707 
  1584.78,767.569 1587.38,767.432 1589.97,767.296 1592.57,767.16 1595.16,767.025 1597.76,766.891 1600.35,766.758 1602.95,766.626 1605.54,766.494 1608.14,766.363 
  1610.73,766.233 1613.33,766.103 1615.92,765.975 1618.52,765.847 1621.12,765.719 1623.71,765.593 1626.31,765.467 1628.91,765.342 1631.51,765.217 1634.1,765.094 
  1636.7,764.971 1639.31,764.848 1641.91,764.727 1644.51,764.606 1647.11,764.485 1649.71,764.366 1652.32,764.247 1654.92,764.128 1657.53,764.011 1660.13,763.894 
  1662.74,763.777 1665.34,763.662 1667.95,763.547 1670.55,763.432 1673.16,763.318 1675.77,763.205 1678.38,763.093 1680.99,762.981 1683.59,762.87 1686.2,762.76 
  1688.81,762.65 1691.42,762.541 1694.03,762.432 1696.64,762.324 1699.25,762.217 1701.86,762.11 1704.46,762.004 1707.07,761.899 1709.68,761.794 1712.29,761.689 
  1714.9,761.586 1717.51,761.483 1720.12,761.38 1722.73,761.278 1725.34,761.177 1727.96,761.076 1730.57,760.976 1733.18,760.877 1735.79,760.778 1738.4,760.679 
  1741.01,760.582 1743.63,760.484 1746.24,760.387 1748.85,760.291 1751.47,760.196 1754.08,760.101 1756.7,760.006 1759.31,759.912 1761.93,759.819 1764.54,759.726 
  1767.16,759.633 1769.77,759.541 1772.39,759.45 1775.01,759.359 1777.63,759.269 1780.25,759.179 1782.87,759.09 1785.48,759.001 1788.1,758.913 1790.72,758.825 
  1793.34,758.738 1795.97,758.651 1798.59,758.565 1801.21,758.479 1803.83,758.393 1806.45,758.309 1809.08,758.224 1811.7,758.14 1814.33,758.057 1816.95,757.974 
  1819.58,757.892 1822.2,757.81 1824.83,757.728 1827.46,757.647 1830.09,757.567 1832.71,757.486 1835.34,757.407 1837.97,757.328 1840.6,757.249 1843.23,757.171 
  1845.86,757.093 1848.49,757.015 1851.12,756.938 1853.75,756.862 1856.38,756.786 1859.02,756.71 1861.65,756.635 1864.28,756.56 1866.91,756.486 1869.55,756.412 
  1872.18,756.338 1874.82,756.265 1877.45,756.193 1880.09,756.12 1882.72,756.049 1885.36,755.977 1887.99,755.906 1890.63,755.836 1893.27,755.766 1895.9,755.696 
  1898.54,755.626 1901.18,755.557 1903.82,755.489 1906.46,755.421 1909.1,755.353 1911.73,755.286 1914.37,755.219 1917.01,755.152 1919.65,755.086 1922.29,755.02 
  1924.93,754.955 1927.57,754.89 1930.21,754.825 1932.85,754.761 1935.49,754.697 1938.13,754.633 1940.77,754.57 1943.41,754.507 1946.05,754.445 1948.69,754.383 
  1951.33,754.321 1953.97,754.26 1956.61,754.199 1959.25,754.138 1961.89,754.078 1964.53,754.018 1967.17,753.959 1969.81,753.9 1972.45,753.841 1975.09,753.783 
  1977.73,753.724 1980.36,753.667 1983,753.609 1985.64,753.552 1988.27,753.496 1990.91,753.439 1993.55,753.383 1996.18,753.328 1998.82,753.272 2001.45,753.217 
  2004.09,753.163 2006.72,753.108 2009.36,753.054 2011.99,753.001 2014.62,752.947 2017.26,752.894 2019.89,752.842 2022.52,752.789 2025.15,752.737 2027.78,752.685 
  2030.41,752.634 2033.04,752.583 2035.67,752.532 2038.3,752.482 2040.93,752.431 2043.56,752.381 2046.19,752.332 2048.82,752.283 2051.44,752.234 2054.07,752.185 
  2056.7,752.136 2059.32,752.088 2061.95,752.041 2064.57,751.993 2067.2,751.946 2069.82,751.899 2072.44,751.852 2075.06,751.806 2077.69,751.76 2080.31,751.714 
  2082.93,751.668 2085.55,751.623 2088.17,751.578 2090.79,751.533 2093.41,751.489 2096.03,751.445 2098.65,751.401 2101.26,751.357 2103.88,751.314 2106.5,751.271 
  2109.11,751.228 2111.73,751.185 2114.34,751.143 2116.96,751.101 2119.57,751.059 2122.18,751.017 2124.8,750.976 2127.41,750.935 2130.02,750.894 2132.63,750.854 
  2135.25,750.813 2137.86,750.773 2140.47,750.733 2143.08,750.694 2145.69,750.654 2148.3,750.615 2150.91,750.576 2153.51,750.537 2156.12,750.499 2158.73,750.461 
  2161.34,750.423 2163.94,750.385 2166.55,750.348 2169.16,750.31 2171.77,750.273 2174.37,750.236 2176.98,750.2 2179.58,750.163 2182.19,750.127 2184.79,750.091 
  2187.4,750.055 2190,750.02 2192.61,749.984 2195.21,749.949 2197.81,749.914 2200.42,749.879 2203.02,749.845 2205.63,749.811 2208.23,749.776 2210.83,749.743 
  2213.43,749.709 2216.04,749.675 2218.64,749.642 2221.24,749.609 2223.84,749.576 2226.44,749.543 2229.05,749.511 2231.65,749.478 2234.25,749.446 2236.85,749.414 
  2239.45,749.382 2242.06,749.351 2244.66,749.319 2247.26,749.288 2249.86,749.257 2252.46,749.226 2255.06,749.195 2257.66,749.165 2260.27,749.134 2262.87,749.104 
  2265.47,749.074 2268.07,749.044 2270.67,749.015 2273.28,748.985 2275.88,748.956 2278.48,748.927 2281.08,748.898 2283.68,748.869 2286.29,748.841 2288.89,748.812 
  2291.49,748.784 2291.91,748.779 
  "></polyline>
<path clip-path="url(#clip740)" d="
M1655.83 248.629 L2281.09 248.629 L2281.09 93.1086 L1655.83 93.1086  Z
  " fill="#ffffff" fill-rule="evenodd" fill-opacity="1"></path>
<polyline clip-path="url(#clip740)" style="stroke:#000000; stroke-linecap:butt; stroke-linejoin:round; stroke-width:4; stroke-opacity:1; fill:none" points="
  1655.83,248.629 2281.09,248.629 2281.09,93.1086 1655.83,93.1086 1655.83,248.629 
  "></polyline>
<polyline clip-path="url(#clip740)" style="stroke:#009af9; stroke-linecap:butt; stroke-linejoin:round; stroke-width:4; stroke-opacity:1; fill:none" points="
  1679.72,144.949 1823.06,144.949 
  "></polyline>
<path clip-path="url(#clip740)" d="M1846.95 136.303 L1851.2 136.303 L1851.2 162.229 L1846.95 162.229 L1846.95 136.303 M1846.95 126.21 L1851.2 126.21 L1851.2 131.604 L1846.95 131.604 L1846.95 126.21 Z" fill="#000000" fill-rule="evenodd" fill-opacity="1"></path><path clip-path="url(#clip740)" d="M1881.67 146.581 L1881.67 162.229 L1877.41 162.229 L1877.41 146.719 Q1877.41 143.039 1875.97 141.21 Q1874.54 139.382 1871.67 139.382 Q1868.22 139.382 1866.23 141.581 Q1864.24 143.78 1864.24 147.576 L1864.24 162.229 L1859.95 162.229 L1859.95 136.303 L1864.24 136.303 L1864.24 140.331 Q1865.76 137.993 1867.82 136.835 Q1869.91 135.678 1872.62 135.678 Q1877.08 135.678 1879.38 138.456 Q1881.67 141.21 1881.67 146.581 Z" fill="#000000" fill-rule="evenodd" fill-opacity="1"></path><path clip-path="url(#clip740)" d="M1890.16 126.21 L1894.42 126.21 L1894.42 162.229 L1890.16 162.229 L1890.16 126.21 Z" fill="#000000" fill-rule="evenodd" fill-opacity="1"></path><path clip-path="url(#clip740)" d="M1925.51 148.201 L1925.51 150.284 L1905.93 150.284 Q1906.2 154.682 1908.57 156.997 Q1910.95 159.289 1915.19 159.289 Q1917.64 159.289 1919.93 158.687 Q1922.25 158.085 1924.51 156.881 L1924.51 160.909 Q1922.22 161.881 1919.82 162.391 Q1917.41 162.9 1914.93 162.9 Q1908.73 162.9 1905.09 159.289 Q1901.48 155.678 1901.48 149.52 Q1901.48 143.155 1904.91 139.428 Q1908.36 135.678 1914.19 135.678 Q1919.42 135.678 1922.45 139.057 Q1925.51 142.414 1925.51 148.201 M1921.25 146.951 Q1921.2 143.456 1919.28 141.372 Q1917.38 139.289 1914.24 139.289 Q1910.67 139.289 1908.52 141.303 Q1906.39 143.317 1906.07 146.974 L1921.25 146.951 Z" fill="#000000" fill-rule="evenodd" fill-opacity="1"></path><path clip-path="url(#clip740)" d="M1936.71 128.942 L1936.71 136.303 L1945.49 136.303 L1945.49 139.613 L1936.71 139.613 L1936.71 153.687 Q1936.71 156.858 1937.57 157.761 Q1938.45 158.664 1941.11 158.664 L1945.49 158.664 L1945.49 162.229 L1941.11 162.229 Q1936.18 162.229 1934.31 160.4 Q1932.43 158.548 1932.43 153.687 L1932.43 139.613 L1929.31 139.613 L1929.31 136.303 L1932.43 136.303 L1932.43 128.942 L1936.71 128.942 Z" fill="#000000" fill-rule="evenodd" fill-opacity="1"></path><path clip-path="url(#clip740)" d="M1986.34 141.28 Q1987.94 138.409 1990.16 137.044 Q1992.38 135.678 1995.39 135.678 Q1999.44 135.678 2001.64 138.525 Q2003.84 141.349 2003.84 146.581 L2003.84 162.229 L1999.56 162.229 L1999.56 146.719 Q1999.56 142.993 1998.24 141.187 Q1996.92 139.382 1994.21 139.382 Q1990.9 139.382 1988.98 141.581 Q1987.06 143.78 1987.06 147.576 L1987.06 162.229 L1982.78 162.229 L1982.78 146.719 Q1982.78 142.969 1981.46 141.187 Q1980.14 139.382 1977.38 139.382 Q1974.12 139.382 1972.2 141.604 Q1970.28 143.803 1970.28 147.576 L1970.28 162.229 L1966 162.229 L1966 136.303 L1970.28 136.303 L1970.28 140.331 Q1971.74 137.946 1973.77 136.812 Q1975.81 135.678 1978.61 135.678 Q1981.44 135.678 1983.4 137.113 Q1985.39 138.548 1986.34 141.28 Z" fill="#000000" fill-rule="evenodd" fill-opacity="1"></path><path clip-path="url(#clip740)" d="M2024.12 149.196 Q2018.96 149.196 2016.97 150.377 Q2014.98 151.557 2014.98 154.405 Q2014.98 156.673 2016.46 158.016 Q2017.96 159.335 2020.53 159.335 Q2024.07 159.335 2026.2 156.835 Q2028.36 154.312 2028.36 150.145 L2028.36 149.196 L2024.12 149.196 M2032.62 147.437 L2032.62 162.229 L2028.36 162.229 L2028.36 158.293 Q2026.9 160.655 2024.72 161.789 Q2022.55 162.9 2019.4 162.9 Q2015.42 162.9 2013.06 160.678 Q2010.72 158.432 2010.72 154.682 Q2010.72 150.307 2013.63 148.085 Q2016.57 145.863 2022.38 145.863 L2028.36 145.863 L2028.36 145.446 Q2028.36 142.507 2026.41 140.909 Q2024.49 139.289 2021 139.289 Q2018.77 139.289 2016.67 139.821 Q2014.56 140.354 2012.62 141.419 L2012.62 137.483 Q2014.95 136.581 2017.15 136.141 Q2019.35 135.678 2021.44 135.678 Q2027.06 135.678 2029.84 138.594 Q2032.62 141.511 2032.62 147.437 Z" fill="#000000" fill-rule="evenodd" fill-opacity="1"></path><path clip-path="url(#clip740)" d="M2057.92 137.067 L2057.92 141.094 Q2056.11 140.169 2054.17 139.706 Q2052.22 139.243 2050.14 139.243 Q2046.97 139.243 2045.37 140.215 Q2043.8 141.187 2043.8 143.131 Q2043.8 144.613 2044.93 145.469 Q2046.06 146.303 2049.49 147.067 L2050.95 147.391 Q2055.49 148.363 2057.38 150.145 Q2059.31 151.905 2059.31 155.076 Q2059.31 158.687 2056.44 160.793 Q2053.59 162.9 2048.59 162.9 Q2046.5 162.9 2044.24 162.483 Q2041.99 162.09 2039.49 161.28 L2039.49 156.881 Q2041.85 158.108 2044.14 158.733 Q2046.44 159.335 2048.68 159.335 Q2051.69 159.335 2053.31 158.317 Q2054.93 157.275 2054.93 155.4 Q2054.93 153.664 2053.75 152.738 Q2052.59 151.812 2048.63 150.956 L2047.15 150.608 Q2043.19 149.775 2041.44 148.062 Q2039.68 146.326 2039.68 143.317 Q2039.68 139.659 2042.27 137.669 Q2044.86 135.678 2049.63 135.678 Q2051.99 135.678 2054.07 136.025 Q2056.16 136.372 2057.92 137.067 Z" fill="#000000" fill-rule="evenodd" fill-opacity="1"></path><path clip-path="url(#clip740)" d="M2082.62 137.067 L2082.62 141.094 Q2080.81 140.169 2078.87 139.706 Q2076.92 139.243 2074.84 139.243 Q2071.67 139.243 2070.07 140.215 Q2068.5 141.187 2068.5 143.131 Q2068.5 144.613 2069.63 145.469 Q2070.76 146.303 2074.19 147.067 L2075.65 147.391 Q2080.18 148.363 2082.08 150.145 Q2084 151.905 2084 155.076 Q2084 158.687 2081.13 160.793 Q2078.29 162.9 2073.29 162.9 Q2071.2 162.9 2068.93 162.483 Q2066.69 162.09 2064.19 161.28 L2064.19 156.881 Q2066.55 158.108 2068.84 158.733 Q2071.13 159.335 2073.38 159.335 Q2076.39 159.335 2078.01 158.317 Q2079.63 157.275 2079.63 155.4 Q2079.63 153.664 2078.45 152.738 Q2077.29 151.812 2073.33 150.956 L2071.85 150.608 Q2067.89 149.775 2066.13 148.062 Q2064.37 146.326 2064.37 143.317 Q2064.37 139.659 2066.97 137.669 Q2069.56 135.678 2074.33 135.678 Q2076.69 135.678 2078.77 136.025 Q2080.86 136.372 2082.62 137.067 Z" fill="#000000" fill-rule="evenodd" fill-opacity="1"></path><path clip-path="url(#clip740)" d="M2118.98 126.21 L2118.98 129.752 L2114.91 129.752 Q2112.62 129.752 2111.71 130.678 Q2110.83 131.604 2110.83 134.011 L2110.83 136.303 L2117.85 136.303 L2117.85 139.613 L2110.83 139.613 L2110.83 162.229 L2106.55 162.229 L2106.55 139.613 L2102.48 139.613 L2102.48 136.303 L2106.55 136.303 L2106.55 134.497 Q2106.55 130.169 2108.56 128.201 Q2110.58 126.21 2114.95 126.21 L2118.98 126.21 Z" fill="#000000" fill-rule="evenodd" fill-opacity="1"></path><path clip-path="url(#clip740)" d="M2122.55 126.21 L2126.81 126.21 L2126.81 162.229 L2122.55 162.229 L2122.55 126.21 Z" fill="#000000" fill-rule="evenodd" fill-opacity="1"></path><path clip-path="url(#clip740)" d="M2145.76 139.289 Q2142.34 139.289 2140.35 141.974 Q2138.36 144.636 2138.36 149.289 Q2138.36 153.942 2140.32 156.627 Q2142.31 159.289 2145.76 159.289 Q2149.17 159.289 2151.16 156.604 Q2153.15 153.918 2153.15 149.289 Q2153.15 144.682 2151.16 141.997 Q2149.17 139.289 2145.76 139.289 M2145.76 135.678 Q2151.32 135.678 2154.49 139.289 Q2157.66 142.9 2157.66 149.289 Q2157.66 155.655 2154.49 159.289 Q2151.32 162.9 2145.76 162.9 Q2140.18 162.9 2137.01 159.289 Q2133.87 155.655 2133.87 149.289 Q2133.87 142.9 2137.01 139.289 Q2140.18 135.678 2145.76 135.678 Z" fill="#000000" fill-rule="evenodd" fill-opacity="1"></path><path clip-path="url(#clip740)" d="M2162.24 136.303 L2166.5 136.303 L2171.83 156.534 L2177.13 136.303 L2182.15 136.303 L2187.48 156.534 L2192.78 136.303 L2197.04 136.303 L2190.25 162.229 L2185.23 162.229 L2179.65 140.979 L2174.05 162.229 L2169.03 162.229 L2162.24 136.303 Z" fill="#000000" fill-rule="evenodd" fill-opacity="1"></path><polyline clip-path="url(#clip740)" style="stroke:#e26f46; stroke-linecap:butt; stroke-linejoin:round; stroke-width:4; stroke-opacity:1; fill:none" points="
  1679.72,196.789 1823.06,196.789 
  "></polyline>
<path clip-path="url(#clip740)" d="M1858.84 191.129 Q1855.42 191.129 1853.43 193.814 Q1851.44 196.476 1851.44 201.129 Q1851.44 205.782 1853.4 208.467 Q1855.39 211.129 1858.84 211.129 Q1862.25 211.129 1864.24 208.444 Q1866.23 205.758 1866.23 201.129 Q1866.23 196.522 1864.24 193.837 Q1862.25 191.129 1858.84 191.129 M1858.84 187.518 Q1864.4 187.518 1867.57 191.129 Q1870.74 194.74 1870.74 201.129 Q1870.74 207.495 1867.57 211.129 Q1864.4 214.74 1858.84 214.74 Q1853.26 214.74 1850.09 211.129 Q1846.95 207.495 1846.95 201.129 Q1846.95 194.74 1850.09 191.129 Q1853.26 187.518 1858.84 187.518 Z" fill="#000000" fill-rule="evenodd" fill-opacity="1"></path><path clip-path="url(#clip740)" d="M1877.36 203.837 L1877.36 188.143 L1881.62 188.143 L1881.62 203.675 Q1881.62 207.356 1883.06 209.208 Q1884.49 211.036 1887.36 211.036 Q1890.81 211.036 1892.8 208.837 Q1894.82 206.638 1894.82 202.842 L1894.82 188.143 L1899.07 188.143 L1899.07 214.069 L1894.82 214.069 L1894.82 210.087 Q1893.26 212.448 1891.2 213.606 Q1889.17 214.74 1886.46 214.74 Q1881.99 214.74 1879.68 211.962 Q1877.36 209.184 1877.36 203.837 M1888.08 187.518 L1888.08 187.518 Z" fill="#000000" fill-rule="evenodd" fill-opacity="1"></path><path clip-path="url(#clip740)" d="M1912.06 180.782 L1912.06 188.143 L1920.83 188.143 L1920.83 191.453 L1912.06 191.453 L1912.06 205.527 Q1912.06 208.698 1912.92 209.601 Q1913.8 210.504 1916.46 210.504 L1920.83 210.504 L1920.83 214.069 L1916.46 214.069 Q1911.53 214.069 1909.65 212.24 Q1907.78 210.388 1907.78 205.527 L1907.78 191.453 L1904.65 191.453 L1904.65 188.143 L1907.78 188.143 L1907.78 180.782 L1912.06 180.782 Z" fill="#000000" fill-rule="evenodd" fill-opacity="1"></path><path clip-path="url(#clip740)" d="M1926.44 178.05 L1930.69 178.05 L1930.69 214.069 L1926.44 214.069 L1926.44 178.05 Z" fill="#000000" fill-rule="evenodd" fill-opacity="1"></path><path clip-path="url(#clip740)" d="M1961.78 200.041 L1961.78 202.124 L1942.2 202.124 Q1942.48 206.522 1944.84 208.837 Q1947.22 211.129 1951.46 211.129 Q1953.91 211.129 1956.2 210.527 Q1958.52 209.925 1960.79 208.721 L1960.79 212.749 Q1958.5 213.721 1956.09 214.231 Q1953.68 214.74 1951.2 214.74 Q1945 214.74 1941.37 211.129 Q1937.76 207.518 1937.76 201.36 Q1937.76 194.995 1941.18 191.268 Q1944.63 187.518 1950.46 187.518 Q1955.69 187.518 1958.73 190.897 Q1961.78 194.254 1961.78 200.041 M1957.52 198.791 Q1957.48 195.296 1955.56 193.212 Q1953.66 191.129 1950.51 191.129 Q1946.94 191.129 1944.79 193.143 Q1942.66 195.157 1942.34 198.814 L1957.52 198.791 Z" fill="#000000" fill-rule="evenodd" fill-opacity="1"></path><path clip-path="url(#clip740)" d="M1972.99 180.782 L1972.99 188.143 L1981.76 188.143 L1981.76 191.453 L1972.99 191.453 L1972.99 205.527 Q1972.99 208.698 1973.84 209.601 Q1974.72 210.504 1977.38 210.504 L1981.76 210.504 L1981.76 214.069 L1977.38 214.069 Q1972.45 214.069 1970.58 212.24 Q1968.7 210.388 1968.7 205.527 L1968.7 191.453 L1965.58 191.453 L1965.58 188.143 L1968.7 188.143 L1968.7 180.782 L1972.99 180.782 Z" fill="#000000" fill-rule="evenodd" fill-opacity="1"></path><path clip-path="url(#clip740)" d="M2022.62 193.12 Q2024.21 190.249 2026.44 188.884 Q2028.66 187.518 2031.67 187.518 Q2035.72 187.518 2037.92 190.365 Q2040.12 193.189 2040.12 198.421 L2040.12 214.069 L2035.83 214.069 L2035.83 198.559 Q2035.83 194.833 2034.51 193.027 Q2033.19 191.222 2030.49 191.222 Q2027.18 191.222 2025.25 193.421 Q2023.33 195.62 2023.33 199.416 L2023.33 214.069 L2019.05 214.069 L2019.05 198.559 Q2019.05 194.809 2017.73 193.027 Q2016.41 191.222 2013.66 191.222 Q2010.39 191.222 2008.47 193.444 Q2006.55 195.643 2006.55 199.416 L2006.55 214.069 L2002.27 214.069 L2002.27 188.143 L2006.55 188.143 L2006.55 192.171 Q2008.01 189.786 2010.05 188.652 Q2012.08 187.518 2014.88 187.518 Q2017.71 187.518 2019.68 188.953 Q2021.67 190.388 2022.62 193.12 Z" fill="#000000" fill-rule="evenodd" fill-opacity="1"></path><path clip-path="url(#clip740)" d="M2060.39 201.036 Q2055.23 201.036 2053.24 202.217 Q2051.25 203.397 2051.25 206.245 Q2051.25 208.513 2052.73 209.856 Q2054.24 211.175 2056.81 211.175 Q2060.35 211.175 2062.48 208.675 Q2064.63 206.152 2064.63 201.985 L2064.63 201.036 L2060.39 201.036 M2068.89 199.277 L2068.89 214.069 L2064.63 214.069 L2064.63 210.133 Q2063.17 212.495 2061 213.629 Q2058.82 214.74 2055.67 214.74 Q2051.69 214.74 2049.33 212.518 Q2046.99 210.272 2046.99 206.522 Q2046.99 202.147 2049.91 199.925 Q2052.85 197.703 2058.66 197.703 L2064.63 197.703 L2064.63 197.286 Q2064.63 194.347 2062.69 192.749 Q2060.76 191.129 2057.27 191.129 Q2055.05 191.129 2052.94 191.661 Q2050.83 192.194 2048.89 193.259 L2048.89 189.323 Q2051.23 188.421 2053.43 187.981 Q2055.62 187.518 2057.71 187.518 Q2063.33 187.518 2066.11 190.434 Q2068.89 193.351 2068.89 199.277 Z" fill="#000000" fill-rule="evenodd" fill-opacity="1"></path><path clip-path="url(#clip740)" d="M2094.19 188.907 L2094.19 192.934 Q2092.38 192.009 2090.44 191.546 Q2088.5 191.083 2086.41 191.083 Q2083.24 191.083 2081.64 192.055 Q2080.07 193.027 2080.07 194.971 Q2080.07 196.453 2081.2 197.309 Q2082.34 198.143 2085.76 198.907 L2087.22 199.231 Q2091.76 200.203 2093.66 201.985 Q2095.58 203.745 2095.58 206.916 Q2095.58 210.527 2092.71 212.633 Q2089.86 214.74 2084.86 214.74 Q2082.78 214.74 2080.51 214.323 Q2078.26 213.93 2075.76 213.12 L2075.76 208.721 Q2078.12 209.948 2080.42 210.573 Q2082.71 211.175 2084.95 211.175 Q2087.96 211.175 2089.58 210.157 Q2091.2 209.115 2091.2 207.24 Q2091.2 205.504 2090.02 204.578 Q2088.87 203.652 2084.91 202.796 L2083.43 202.448 Q2079.47 201.615 2077.71 199.902 Q2075.95 198.166 2075.95 195.157 Q2075.95 191.499 2078.54 189.509 Q2081.13 187.518 2085.9 187.518 Q2088.26 187.518 2090.35 187.865 Q2092.43 188.212 2094.19 188.907 Z" fill="#000000" fill-rule="evenodd" fill-opacity="1"></path><path clip-path="url(#clip740)" d="M2118.89 188.907 L2118.89 192.934 Q2117.08 192.009 2115.14 191.546 Q2113.19 191.083 2111.11 191.083 Q2107.94 191.083 2106.34 192.055 Q2104.77 193.027 2104.77 194.971 Q2104.77 196.453 2105.9 197.309 Q2107.04 198.143 2110.46 198.907 L2111.92 199.231 Q2116.46 200.203 2118.36 201.985 Q2120.28 203.745 2120.28 206.916 Q2120.28 210.527 2117.41 212.633 Q2114.56 214.74 2109.56 214.74 Q2107.48 214.74 2105.21 214.323 Q2102.96 213.93 2100.46 213.12 L2100.46 208.721 Q2102.82 209.948 2105.12 210.573 Q2107.41 211.175 2109.65 211.175 Q2112.66 211.175 2114.28 210.157 Q2115.9 209.115 2115.9 207.24 Q2115.9 205.504 2114.72 204.578 Q2113.56 203.652 2109.61 202.796 L2108.12 202.448 Q2104.17 201.615 2102.41 199.902 Q2100.65 198.166 2100.65 195.157 Q2100.65 191.499 2103.24 189.509 Q2105.83 187.518 2110.6 187.518 Q2112.96 187.518 2115.05 187.865 Q2117.13 188.212 2118.89 188.907 Z" fill="#000000" fill-rule="evenodd" fill-opacity="1"></path><path clip-path="url(#clip740)" d="M2155.25 178.05 L2155.25 181.592 L2151.18 181.592 Q2148.89 181.592 2147.99 182.518 Q2147.11 183.444 2147.11 185.851 L2147.11 188.143 L2154.12 188.143 L2154.12 191.453 L2147.11 191.453 L2147.11 214.069 L2142.82 214.069 L2142.82 191.453 L2138.75 191.453 L2138.75 188.143 L2142.82 188.143 L2142.82 186.337 Q2142.82 182.009 2144.84 180.041 Q2146.85 178.05 2151.23 178.05 L2155.25 178.05 Z" fill="#000000" fill-rule="evenodd" fill-opacity="1"></path><path clip-path="url(#clip740)" d="M2158.82 178.05 L2163.08 178.05 L2163.08 214.069 L2158.82 214.069 L2158.82 178.05 Z" fill="#000000" fill-rule="evenodd" fill-opacity="1"></path><path clip-path="url(#clip740)" d="M2182.04 191.129 Q2178.61 191.129 2176.62 193.814 Q2174.63 196.476 2174.63 201.129 Q2174.63 205.782 2176.6 208.467 Q2178.59 211.129 2182.04 211.129 Q2185.44 211.129 2187.43 208.444 Q2189.42 205.758 2189.42 201.129 Q2189.42 196.522 2187.43 193.837 Q2185.44 191.129 2182.04 191.129 M2182.04 187.518 Q2187.59 187.518 2190.76 191.129 Q2193.93 194.74 2193.93 201.129 Q2193.93 207.495 2190.76 211.129 Q2187.59 214.74 2182.04 214.74 Q2176.46 214.74 2173.29 211.129 Q2170.14 207.495 2170.14 201.129 Q2170.14 194.74 2173.29 191.129 Q2176.46 187.518 2182.04 187.518 Z" fill="#000000" fill-rule="evenodd" fill-opacity="1"></path><path clip-path="url(#clip740)" d="M2198.52 188.143 L2202.78 188.143 L2208.1 208.374 L2213.4 188.143 L2218.42 188.143 L2223.75 208.374 L2229.05 188.143 L2233.31 188.143 L2226.53 214.069 L2221.5 214.069 L2215.92 192.819 L2210.32 214.069 L2205.3 214.069 L2198.52 188.143 Z" fill="#000000" fill-rule="evenodd" fill-opacity="1"></path></svg>